<?xml version="1.0" encoding="utf-8"?>
<!-- Generator: Adobe Illustrator 22.0.1, SVG Export Plug-In . SVG Version: 6.00 Build 0)  -->
<svg version="1.1" id="Layer_1" xmlns="http://www.w3.org/2000/svg" xmlns:xlink="http://www.w3.org/1999/xlink" x="0px" y="0px"
	 viewBox="0 0 512 512" style="enable-background:new 0 0 512 512;" xml:space="preserve">
<path d="M107.8,443.3c-43-42.8-44.6-112.1-7.6-160.3L263.9,69.6c27.1-35.3,77.1-47.1,114.8-23.6c43.4,27,53,84.9,22.7,124.4
	L234.1,388.5c-15,19.6-42.1,27.5-64.2,16.5c-29.8-14.9-37.4-52.1-18.2-77.2l147.9-192.7c5.8-7.5,16.4-8.8,23.9-3.1
	c7.5,5.8,8.8,16.4,3.1,23.9L178.7,348.4c-5.8,7.5-4.3,18.2,3.1,23.9s18.2,4.3,23.9-3.1l167.3-218c15-19.6,15.7-47.8-0.7-66.3
	c-22.1-24.9-60-22.6-79.2,2.4L126.8,303.9c-27.1,35.3-25.6,86.6,6.9,117c37.3,34.8,95.7,29.3,126-10.2L407.6,218
	c5.8-7.5,16.4-8.8,23.9-3.1c7.5,5.8,8.8,16.4,3.1,23.9L286.8,431.4C243.7,487.9,159.8,494.9,107.8,443.3z"/>
</svg>
