<?xml version="1.0" encoding="utf-8"?>
<!-- Generator: Adobe Illustrator 22.0.1, SVG Export Plug-In . SVG Version: 6.00 Build 0)  -->
<svg version="1.1" id="Layer_1" xmlns="http://www.w3.org/2000/svg" xmlns:xlink="http://www.w3.org/1999/xlink" x="0px" y="0px"
	 viewBox="0 0 24 24" style="enable-background:new 0 0 24 24;" xml:space="preserve">
<style type="text/css">
	.st0{fill:#040725;}
</style>
<g id="Group_915" transform="translate(0 -0.222)">
	<path id="Icon" class="st0" d="M15.8,11.7V4.1c0-2.1-1.8-3.8-3.8-3.8S8.2,2.1,8.2,4.1v7.5c0,2.1,1.8,3.8,3.8,3.8
		S15.8,13.7,15.8,11.7z M18.7,11.7c0,3.7-3,6.6-6.6,6.4c0,0,0,0-0.2,0c-3.7,0.2-6.6-2.7-6.7-6.4c0,0,0,0,0-0.2H3.2
		c0.2,4.3,3.4,7.8,7.5,8.5v4.2h2.6V20c4.3-0.6,7.5-4.2,7.5-8.5C20.8,11.7,18.7,11.7,18.7,11.7z"/>
</g>
</svg>
