<?xml version="1.0" encoding="utf-8"?>
<!-- Generator: Adobe Illustrator 25.2.1, SVG Export Plug-In . SVG Version: 6.00 Build 0)  -->
<svg version="1.1" id="Layer_1" xmlns="http://www.w3.org/2000/svg" xmlns:xlink="http://www.w3.org/1999/xlink" x="0px" y="0px"
	 viewBox="0 0 144 144" style="enable-background:new 0 0 144 144;" xml:space="preserve">
<style type="text/css">
	.st0{fill:#FFFFFF;}
</style>
<g id="Layer_61" transform="translate(-3 -13)">
	<path id="Path_520" class="st0" d="M134.6,68.7c0.9-1.5,1.3-3.2,1.3-4.9V62c0-2.6-1-5.1-2.8-6.9l-4.5-4.4v-1.4h12.5l-3-19.5h-23.8
		l-3,19.5h12.5v1.4l-4.5,4.4c-1.8,1.8-2.9,4.3-2.8,6.9v1.9c0,1.7,0.5,3.4,1.3,4.9h-11.1v39h39v-39h-11.1V68.7z M131,80.9h-9.7V76
		h9.7V80.9z M131,95.5h-9.7v-4.9h9.7V95.5z"/>
	<path id="Path_521" class="st0" d="M99.4,94.7c0-4.2-1.8-8.3-4.9-11.2V47.7h-4.9v4.9H16.5v-4.9h-4.9v35.9
		c-3.1,2.9-4.9,6.9-4.9,11.2v4.1H4.4v41.4h4.9v-17.1H97v17.1h4.9V98.8h-2.4L99.4,94.7L99.4,94.7z M21.4,79.3V72c0-4,3.3-7.3,7.3-7.3
		h14.6c4,0,7.3,3.3,7.3,7.3v7.3H21.4z M55.5,72c0-4,3.3-7.3,7.3-7.3h14.6c4,0,7.3,3.3,7.3,7.3v7.3H55.5V72z M11.7,94.7
		c0-3.2,1.5-6.1,4-8.1c1.8-1.6,4.1-2.4,6.5-2.4H84c2.4,0,4.7,0.9,6.5,2.4l0.3,0.2c2.3,1.9,3.7,4.8,3.7,7.8v4.1H11.7V94.7z"/>
</g>
</svg>
