<?xml version="1.0" encoding="utf-8"?>
<!-- Generator: Adobe Illustrator 25.2.1, SVG Export Plug-In . SVG Version: 6.00 Build 0)  -->
<svg version="1.1" id="Capa_1" xmlns="http://www.w3.org/2000/svg" xmlns:xlink="http://www.w3.org/1999/xlink" x="0px" y="0px"
	 viewBox="0 0 512 512" style="enable-background:new 0 0 512 512;" xml:space="preserve">
<style type="text/css">
	.st0{stroke:#000000;stroke-width:3;stroke-miterlimit:10;}
</style>
<g>
	<path class="st0" d="M468.4,409.2c-41-40.7-61.7-88.9-61.7-143.2v-79.1c0.4-60.3-40.2-100.3-75-116.2c-10-4.6-20.3-8.1-30.7-10.7
		v-5c0-24.2-19.7-44-44-44s-44,19.7-44,44v5.8c-9.4,2.5-18.7,5.9-27.7,10c-38.5,17.7-77.5,60.5-77.9,116.1V266
		c0,56.2-19.8,104.3-58.9,143.2c-2.3,2.3-3.2,5.7-2.2,8.9s3.6,5.5,6.9,6l83.4,14.4c15.5,2.7,29.9,4.9,43.5,6.7
		c15.4,30.1,45.5,58.4,78.4,58.4c32.9,0,63.1-28.3,78.4-58.4c13.6-1.8,27.8-4,43.3-6.7l83.4-14.4c3.2-0.6,5.9-2.9,6.9-6
		C471.6,414.9,470.7,411.5,468.4,409.2z M230.6,55c0-14.5,11.8-26.4,26.4-26.4c14.5,0,26.4,11.8,26.4,26.4v1.6
		c-17.5-2.5-35.3-2.4-52.8,0.4V55z M258.6,486c-22.3,0-43.1-20.1-56.4-38.1c19.6,2,38,3,56.3,3c18.4,0,36.8-1,56.5-3.1
		C301.7,465.9,280.9,486,258.6,486z M377.3,421.2c-16.9,2.9-32.3,5.3-46.9,7.1c0,0,0,0-0.1,0c-6.4,0.8-12.7,1.5-18.8,2.1
		c-0.1,0-0.1,0-0.2,0c-5.6,0.6-11.1,1-16.5,1.4c-1,0.1-2,0.1-3.1,0.2c-4.7,0.3-9.3,0.6-14,0.7c-0.9,0-1.9,0.1-2.8,0.1
		c-10.9,0.4-21.7,0.4-32.7,0c-1,0-2-0.1-2.9-0.1c-4.6-0.2-9.1-0.4-13.8-0.7c-1.1-0.1-2.2-0.1-3.3-0.2c-5.3-0.4-10.6-0.8-16.1-1.4
		c-0.2,0-0.4,0-0.6-0.1c-6.1-0.6-12.3-1.3-18.7-2.1c0,0-0.1,0-0.1,0c-14.7-1.9-30.2-4.2-47.1-7.2l-67.4-11.6
		c35-40,52.8-88.3,52.8-143.6v-79.1c0.3-47.8,34.2-84.7,67.6-100.1c9.9-4.6,20.3-8,30.7-10.4c0.1,0,0.2,0,0.3,0
		c21.7-4.9,44.7-5.1,66.6-0.6c0.1,0,0.2,0,0.3,0c11.5,2.4,22.8,6,33.6,11c32.4,14.8,65,51.5,64.7,100.2V266
		c0,53,19.1,102.4,55.5,143.6L377.3,421.2z"/>
	<path class="st0" d="M313.2,134.6c-29.9-15.6-66.5-15.6-96.2,0c-16.9,8.9-45.7,34.9-45.9,76.1c0,4.9,3.4,8.8,7.7,8.8c0,0,0,0,0,0
		c4.2,0,7.7-3.9,7.7-8.7c0.2-32.3,23.3-53.1,36.9-60.2c25.7-13.5,57.4-13.5,83.3,0c3.9,2,8.5,0.1,10.2-4.3
		C318.8,141.8,317.1,136.6,313.2,134.6z"/>
</g>
</svg>
