<?xml version="1.0" encoding="utf-8"?>
<!-- Generator: Adobe Illustrator 25.2.1, SVG Export Plug-In . SVG Version: 6.00 Build 0)  -->
<svg version="1.1" id="Capa_1" xmlns="http://www.w3.org/2000/svg" xmlns:xlink="http://www.w3.org/1999/xlink" x="0px" y="0px"
	 viewBox="0 0 512 512" style="enable-background:new 0 0 512 512;" xml:space="preserve">
<style type="text/css">
	.st0{fill:#040725;}
</style>
<g>
	<g>
		<g>
			<path class="st0" d="M269.7,320.2c0,13.1,10.6,23.8,23.8,23.8h27.9c13.1,0,23.8-10.6,23.8-23.8v-27.9c0-13.1-10.6-23.8-23.8-23.8
				h-27.9c-13.1,0-23.8,10.6-23.8,23.8V320.2z M293.4,292.2h27.9v27.9l0,0h-27.9V292.2z"/>
			<circle class="st0" cx="333.3" cy="228.7" r="11.9"/>
			<circle class="st0" cx="281.6" cy="228.7" r="11.9"/>
			<path class="st0" d="M396.2,313c6.5,0,11.9-5.3,11.9-11.9v-126c0-26.2-21.3-47.5-47.5-47.5h-15.5v-11.9c0-6.5-5.3-11.9-11.9-11.9
				s-11.9,5.3-11.9,11.9v11.9h-54.1v-11.9c0-6.5-5.3-11.9-11.9-11.9s-11.9,5.3-11.9,11.9v11.9H190v-11.9c0-6.5-5.3-11.9-11.9-11.9
				s-11.9,5.3-11.9,11.9v11.9h-14.9c-26.2,0-47.5,21.3-47.5,47.5v185.4c0,26.2,21.3,47.5,47.5,47.5h209.2
				c26.2,0,47.5-21.3,47.5-47.5c0-6.5-5.3-11.9-11.9-11.9s-11.9,5.3-11.9,11.9c0,13.1-10.6,23.8-23.8,23.8h-209
				c-13.1,0-23.8-10.6-23.8-23.8V175.2c0-13.1,10.6-23.8,23.8-23.8h14.9v11.9c0,6.5,5.3,11.9,11.9,11.9s11.9-5.3,11.9-11.9v-11.9
				h53.5v11.9c0,6.5,5.3,11.9,11.9,11.9c6.6,0,11.9-5.3,11.9-11.9v-11.9h54.1v11.9c0,6.5,5.3,11.9,11.9,11.9s11.9-5.3,11.9-11.9
				v-11.9h15.5c13.1,0,23.8,10.6,23.8,23.8v126C384.4,307.7,389.7,313,396.2,313z"/>
			<circle class="st0" cx="178.2" cy="332.1" r="11.9"/>
			<circle class="st0" cx="178.2" cy="228.7" r="11.9"/>
			<circle class="st0" cx="178.2" cy="280.4" r="11.9"/>
			<circle class="st0" cx="229.9" cy="280.4" r="11.9"/>
			<circle class="st0" cx="229.9" cy="228.7" r="11.9"/>
			<circle class="st0" cx="229.9" cy="332.1" r="11.9"/>
		</g>
	</g>
</g>
</svg>
