<?xml version="1.0" encoding="utf-8"?>
<!-- Generator: Adobe Illustrator 25.2.1, SVG Export Plug-In . SVG Version: 6.00 Build 0)  -->
<svg version="1.1" id="Layer_1" xmlns="http://www.w3.org/2000/svg" xmlns:xlink="http://www.w3.org/1999/xlink" x="0px" y="0px"
	 viewBox="0 0 70 70" style="enable-background:new 0 0 70 70;" xml:space="preserve">
<style type="text/css">
	.st0{fill:#040725;}
</style>
<g>
	<g>
		<path class="st0" d="M56.9,54.1L55,52.2V20.2c0-0.3-0.2-0.5-0.3-0.8l-8.7-8.8c-0.3-0.3-0.5-0.3-0.8-0.3H17.2c-1.2,0-2.2,1-2.2,2.2
			v28.1h-1.1c-0.3,0-0.5,0.2-0.8,0.3s-0.3,0.5-0.3,0.8v17c0,0.3,0.2,0.5,0.3,0.8c0.3,0.3,0.5,0.3,0.8,0.3h42.2
			c0.5,0,1.1-0.5,1.1-1.1v-3.7C57.3,54.5,57.2,54.2,56.9,54.1L56.9,54.1z M46.3,14.1l5.1,5.1h-5.1C46.3,19,46.3,14.1,46.3,14.1z
			 M17.2,12.5H44V19c0,1.2,1,2.2,2.2,2.2h6.6V50l-9-9c-0.3-0.3-0.5-0.3-0.8-0.3H17.2V12.5z M55.1,57.5H15V42.7h27.6l12.5,12.5V57.5
			L55.1,57.5z"/>
	</g>
	<g>
		<g>
			<path class="st0" d="M36.9,23.9H22.5c-0.7,0-1.2-0.5-1.2-1.2s0.5-1.2,1.2-1.2h14.4c0.7,0,1.2,0.5,1.2,1.2S37.6,23.9,36.9,23.9z"
				/>
		</g>
		<g>
			<path class="st0" d="M34.5,29.4h-12c-0.7,0-1.2-0.5-1.2-1.2s0.5-1.2,1.2-1.2h12c0.7,0,1.2,0.5,1.2,1.2S35.2,29.4,34.5,29.4z"/>
		</g>
	</g>
	<path class="st0" d="M19.2,48.2h9v4.1h-9V48.2z"/>
</g>
</svg>
