<?xml version="1.0" encoding="utf-8"?>
<!-- Generator: Adobe Illustrator 25.2.1, SVG Export Plug-In . SVG Version: 6.00 Build 0)  -->
<svg version="1.1" id="Capa_1" xmlns="http://www.w3.org/2000/svg" xmlns:xlink="http://www.w3.org/1999/xlink" x="0px" y="0px"
	 viewBox="0 0 496 496" style="enable-background:new 0 0 496 496;" xml:space="preserve">
<style type="text/css">
	.st0{fill-rule:evenodd;clip-rule:evenodd;fill:#BCBCBC;}
</style>
<g id="Layer_x0020_1">
	<g id="_217118904">
		<path id="_217120896" class="st0" d="M454.5,493.1h-413c-11.6,0-21-9.4-21-21V275.3c0-5.6,2.2-10.9,6.1-14.9c4-4,9.3-6.2,14.9-6.2
			h224.2c3.1,0,5.6-1.3,7.4-3.8l36.3-40c4.1-5.5,10.1-8.6,16.9-8.6h128.2c11.6,0,21,9.4,21,21v189.4c0,3.3-2.7,5.9-5.9,5.9
			c-3.3,0-5.9-2.7-5.9-5.9V222.9c0-5-4.1-9.2-9.2-9.2H326.4c-3.1,0-5.6,1.3-7.4,3.8l-36.4,40.1c-4.1,5.5-10.1,8.6-17,8.6H41.4
			c-2.5,0-4.7,0.9-6.5,2.7c-1.8,1.8-2.7,4-2.7,6.5v196.8c0,5,4.1,9.2,9.2,9.2h413c5,0,9.2-4.1,9.2-9.2v-47.9c0-3.3,2.7-5.9,5.9-5.9
			c3.3,0,5.9,2.7,5.9,5.9v47.9C475.5,483.7,466.1,493.1,454.5,493.1L454.5,493.1z"/>
		<path id="_217120128" class="st0" d="M26.4,281.3c-3.3,0-5.9-2.7-5.9-5.9V167.7c0-5.6,2.2-10.9,6.1-14.9c4-4,9.3-6.2,14.9-6.2
			h46.8c3.3,0,5.9,2.7,5.9,5.9c0,3.3-2.7,5.9-5.9,5.9H41.5c-2.5,0-4.8,0.9-6.5,2.7c-1.8,1.8-2.7,4-2.7,6.5v107.7
			C32.2,278.6,29.6,281.3,26.4,281.3z"/>
		<path id="_217120008" class="st0" d="M88.3,266.2c-3.3,0-5.9-2.7-5.9-5.9V20.6c0-9.7,8-17.7,17.7-17.7h306.4
			c9.7,0,17.7,8,17.7,17.7v187.3c0,3.3-2.7,5.9-5.9,5.9c-3.3,0-5.9-2.7-5.9-5.9V20.6c0-3.3-2.7-5.9-5.9-5.9H100.3
			c-3.3,0-5.9,2.7-5.9,5.9v239.7C94.2,263.6,91.5,266.2,88.3,266.2L88.3,266.2z"/>
		<path id="_217119840" class="st0" d="M234,398.6c-0.8,0-1.5,0.7-1.5,1.5v30.1c0,0.8,0.7,1.5,1.5,1.5H401c0.8,0,1.5-0.7,1.5-1.5
			v-30.1c0-0.8-0.7-1.5-1.5-1.5H234z M401,443.6H234c-7.4,0-13.3-6-13.3-13.3v-30.1c0-7.4,6-13.3,13.3-13.3H401
			c7.4,0,13.3,6,13.3,13.3v30.1C414.2,437.6,408.2,443.6,401,443.6z"/>
		<path id="_217119648" class="st0" d="M135.6,93.1H371V53.9H135.6V93.1z M376.8,104.9H129.7c-3.3,0-5.9-2.7-5.9-5.9v-51
			c0-3.3,2.7-5.9,5.9-5.9h247.2c3.3,0,5.9,2.7,5.9,5.9v51C382.8,102.2,380.1,104.9,376.8,104.9L376.8,104.9z"/>
		<path id="_217119360" class="st0" d="M268.5,149.7H129.7c-3.3,0-5.9-2.7-5.9-5.9c0-3.3,2.7-5.9,5.9-5.9h138.7
			c3.3,0,5.9,2.7,5.9,5.9C274.4,147,271.7,149.7,268.5,149.7z"/>
		<path id="_217119360_1_" class="st0" d="M268.5,191.1H129.7c-3.3,0-5.9-2.7-5.9-5.9c0-3.3,2.7-5.9,5.9-5.9h138.7
			c3.3,0,5.9,2.7,5.9,5.9C274.4,188.4,271.7,191.1,268.5,191.1z"/>
		<path id="_217118952" class="st0" d="M410.3,338.1H230c-3.3,0-5.9-2.7-5.9-5.9c0-3.3,2.7-5.9,5.9-5.9h180.3c3.3,0,5.9,2.7,5.9,5.9
			C416.2,335.4,413.5,338.1,410.3,338.1z"/>
	</g>
</g>
</svg>
