<?xml version="1.0" encoding="utf-8"?>
<!-- Generator: Adobe Illustrator 25.2.1, SVG Export Plug-In . SVG Version: 6.00 Build 0)  -->
<svg version="1.1" id="Layer_1" xmlns="http://www.w3.org/2000/svg" xmlns:xlink="http://www.w3.org/1999/xlink" x="0px" y="0px"
	 viewBox="0 0 16 16" style="enable-background:new 0 0 16 16;" xml:space="preserve">
<style type="text/css">
	.st0{fill-rule:evenodd;clip-rule:evenodd;fill:#4D815C;}
</style>
<path class="st0" d="M8,2.4L7.3,1.7C6.2,0.5,4,0.9,3.3,2.4C2.9,3.1,2.8,4.1,3.5,5.5C4.2,6.8,5.5,8.3,8,10c2.5-1.7,3.8-3.3,4.5-4.6
	c0.7-1.4,0.6-2.4,0.2-3.1c-0.8-1.5-2.9-1.9-4-0.7L8,2.4z M7.5,10.9C-3.3,3.5,4.5-2.2,7.9,0.9C7.9,0.9,8,0.9,8,1c0,0,0.1-0.1,0.1-0.1
	c3.4-3.1,11.1,2.6,0.4,10.1l0.2,0.5c0.1,0.1,0,0.3-0.1,0.3c-0.1,0.1-0.3,0-0.3-0.1l0,0c0,0.1,0,0.2,0,0.3c0.1,0.3,0.2,0.5,0.4,1
	C9,13.5,9,14,8.8,14.5c-0.2,0.5-0.4,0.9-0.6,1.1l0,0c-0.1,0.1-0.2,0.1-0.3,0.1c-0.1-0.1-0.1-0.2-0.1-0.3l0,0c0.2-0.3,0.4-0.6,0.5-1
	c0.1-0.4,0.2-0.8,0-1.2l0,0C8,12.6,7.9,12.3,7.8,12c0-0.1,0-0.3-0.1-0.4l0,0.1c-0.1,0.1-0.2,0.2-0.3,0.1c-0.1-0.1-0.2-0.2-0.1-0.3
	c0,0,0,0,0,0L7.5,10.9L7.5,10.9z M6,2.1C5.4,1.9,4.5,2.1,4.2,2.9C4,3.1,3.9,3.5,4.1,4.2c0.1,0.2,0.4,0.2,0.5,0
	c0.2-0.7,0.6-1.4,1.4-1.7C6.1,2.4,6.2,2.1,6,2.1"/>
</svg>
