<?xml version="1.0" encoding="utf-8"?>
<!-- Generator: Adobe Illustrator 25.2.1, SVG Export Plug-In . SVG Version: 6.00 Build 0)  -->
<svg version="1.1" id="Layer_1" xmlns="http://www.w3.org/2000/svg" xmlns:xlink="http://www.w3.org/1999/xlink" x="0px" y="0px"
	 viewBox="0 0 100 100" style="enable-background:new 0 0 100 100;" xml:space="preserve">
<style type="text/css">
	.st0{fill-rule:evenodd;clip-rule:evenodd;fill:#040725;}
	.st1{fill-rule:evenodd;clip-rule:evenodd;fill:#EBB30A;}
</style>
<g>
	<path class="st0" d="M45.4,35l-6.1-1.5l-10.8,6.9v42.1h-9.7v-6.9c0.3,0.1,0.6,0.1,0.9,0.1c2.4,0,4.3-1.9,4.3-4.3
		c0-1.3-0.6-2.5-1.5-3.3c0.9-0.8,1.5-2,1.5-3.3c0-2-1.4-3.7-3.3-4.2c-0.3-1.6-1.7-2.8-3.4-2.8c-1.7,0-3.1,1.2-3.4,2.8
		c-1.9,0.5-3.3,2.1-3.3,4.2c0,1.3,0.6,2.5,1.5,3.3c-0.9,0.8-1.5,2-1.5,3.3c0,2.4,1.9,4.3,4.3,4.3c0.3,0,0.6,0,0.9-0.1v6.9H11v2.9h78
		v-2.9h-4.9v-6.9c0.3,0.1,0.6,0.1,0.9,0.1c2.4,0,4.3-1.9,4.3-4.3c0-1.3-0.6-2.5-1.5-3.3c0.9-0.8,1.5-2,1.5-3.3c0-2-1.4-3.7-3.3-4.2
		c-0.3-1.6-1.7-2.8-3.4-2.8c-1.7,0-3.1,1.2-3.4,2.8c-1.9,0.5-3.3,2.1-3.3,4.2c0,1.3,0.6,2.5,1.5,3.3c-0.9,0.8-1.5,2-1.5,3.3
		c0,2.4,1.9,4.3,4.3,4.3c0.3,0,0.6,0,0.9-0.1v6.9h-9.7V17.3L60,14.5l-14.5,9.3L45.4,35L45.4,35z M31.4,42v40.5h7.7v0V37.1
		 M60.6,82.6V17.6l-0.1,0l-12.1,7.8v57.2L60.6,82.6L60.6,82.6z"/>
</g>
<rect x="32.6" y="70.4" class="st1" width="4.9" height="5.5"/>
<rect x="32.6" y="61.9" class="st1" width="4.9" height="5.5"/>
<rect x="32.6" y="53.4" class="st1" width="4.9" height="5.5"/>
<rect x="32.6" y="44.9" class="st1" width="4.9" height="5.5"/>
<rect x="51.2" y="69.3" class="st1" width="6.5" height="5.5"/>
<rect x="51.2" y="60.8" class="st1" width="6.5" height="5.5"/>
<rect x="51.2" y="52.3" class="st1" width="6.5" height="5.5"/>
<rect x="51.2" y="43.9" class="st1" width="6.5" height="5.5"/>
<rect x="51.2" y="35.4" class="st1" width="6.5" height="5.5"/>
<rect x="51.2" y="26.9" class="st1" width="6.5" height="5.5"/>
</svg>
