<svg id="line" height="512" viewBox="0 0 64 64" width="512" xmlns="http://www.w3.org/2000/svg"><path d="m23.14453 17.24561h-7.62553a1.00005 1.00005 0 0 0 -1 1v5.9497a1.00005 1.00005 0 0 0 1 1h7.62549a1 1 0 0 0 1-1v-5.9497a1 1 0 0 0 -.99996-1zm-1 5.9497h-5.62553v-3.9497h5.62549z"/><path d="m23.14453 28.30957h-7.62553a1.00005 1.00005 0 0 0 -1 1v5.94971a1.00006 1.00006 0 0 0 1 1h7.62549a1.00005 1.00005 0 0 0 1-1v-5.94971a1 1 0 0 0 -.99996-1zm-1 5.94971h-5.62553v-3.94971h5.62549z"/><path d="m28.23193 35.58789h15.13428a1.00019 1.00019 0 0 0 -.00007-2h-15.13421a1.0002 1.0002 0 0 0 0 2z"/><path d="m14.7478 10.12323a1.19971 1.19971 0 0 0 0-2.39917 1.19971 1.19971 0 0 0 0 2.39917z"/><path d="m19.37469 10.12323a1.19971 1.19971 0 0 0 -.00005-2.39917 1.19971 1.19971 0 0 0 .00005 2.39917z"/><path d="m24.00153 10.12323a1.19971 1.19971 0 0 0 -.00006-2.39917 1.19971 1.19971 0 0 0 .00006 2.39917z"/><path d="m31.563 44.023h-4.24122a1.00019 1.00019 0 0 0 .00006 2h4.24116a1.00019 1.00019 0 0 0 0-2z"/><path d="m59.54883 7.67725c.11007-3.17354-4.09461-4.86433-6.27742-2.59995l-3.63567 3.63547v-1.955a2.03345 2.03345 0 0 0 -2.03125-2.03125h-36.3247a2.03345 2.03345 0 0 0 -2.03125 2.03129v7.56055h-1.06254a3.74265 3.74265 0 0 0 -3.73336 3.74364v23.21638 4.89841a3.73763 3.73763 0 0 0 3.73336 3.73337h16.13089v3.2915h-5.251a3.00328 3.00328 0 0 0 -3 3v2.79834a1 1 0 0 0 1 1h24.75345a.99974.99974 0 0 0 1-1v-2.79834a3.00328 3.00328 0 0 0 -3-3h-5.251v-3.2915h16.13088a3.73743 3.73743 0 0 0 3.73242-3.7334c0-.01948 0-4.88442 0-4.90077v-23.21399a3.74194 3.74194 0 0 0 -1.10046-2.64429l5.1405-5.14038a3.65315 3.65315 0 0 0 1.07715-2.60008zm-18.72949 48.52441v1.79834h-22.75342v-1.79834a1.0013 1.0013 0 0 1 1-1h20.75342a1.001 1.001 0 0 1 1 1zm-8.251-6.291v3.29053h-6.25145v-3.29055zm7.86196-31.99266h-12.19446a1 1 0 0 0 0 2h10.19446l-2.61 2.60986h-7.58446a1.00019 1.00019 0 0 0 .00006 2h6.08948l-1.47876 4.45314h-4.61469a1.00011 1.00011 0 0 0 .00005 2h15.13423a1 1 0 0 0 0-2h-3.688c.09418-.047 7.95752-7.868 7.95752-7.868v19.17264h-36.38719l.00762-27.06152h33.86811zm-5.28382 10.48483.74305-2.23938 1.49536 1.49536zm12.48926-21.645v3.955l-.51141.51135h-35.8609l.01636-4.49756zm-39.44974 9.56053h1.0625v23.96728h-2.79586v-22.22364a1.74069 1.74069 0 0 1 1.73336-1.74364zm42.51318 31.5918h-42.51318a1.73567 1.73567 0 0 1 -1.7334-1.7334v-3.89112c.73444.01917 45.96687.00243 45.979 0v3.89112a1.73514 1.73514 0 0 1 -1.73238 1.7334zm1.73246-29.84816v22.22364h-2.7959v-21.17264l2.27765-2.27759a1.74026 1.74026 0 0 1 .51825 1.22659zm4.626-9.19873-17.82058 17.81959-2.37206-2.37207c2.7229-2.72405 17.0072-17.00657 17.82055-17.81957a1.67755 1.67755 0 0 1 2.37207 2.37206z"/></svg>