<?xml version="1.0" encoding="utf-8"?>
<!-- Generator: Adobe Illustrator 25.2.1, SVG Export Plug-In . SVG Version: 6.00 Build 0)  -->
<svg version="1.1" id="Layer_1" xmlns="http://www.w3.org/2000/svg" xmlns:xlink="http://www.w3.org/1999/xlink" x="0px" y="0px"
	 viewBox="0 0 16 16" style="enable-background:new 0 0 16 16;" xml:space="preserve">
<style type="text/css">
	.st0{fill-rule:evenodd;clip-rule:evenodd;}
</style>
<g>
	<g>
		<g>
			<path class="st0" d="M7,8v3.9C7,12,7,12,7.1,12h1.4c0.1,0,0.1,0,0.1-0.1V8h1c0.1,0,0.1,0,0.1-0.1l0.1-1.2c0-0.1,0-0.1-0.1-0.1
				H8.6V5.7c0-0.2,0.2-0.4,0.4-0.4h0.8c0.1,0,0.1,0,0.1-0.1V4.1C9.9,4,9.8,4,9.8,4H8.4C7.6,4,7,4.6,7,5.4v1.1H6.2
				c-0.1,0-0.1,0-0.1,0.1v1.2c0,0.1,0,0.1,0.1,0.1L7,8L7,8z"/>
		</g>
		<path d="M8,0.1C3.6,0.1,0.1,3.6,0.1,8c0,4.4,3.6,7.9,7.9,7.9c4.4,0,7.9-3.6,7.9-7.9C15.9,3.6,12.4,0.1,8,0.1z M14.9,8
			c0,3.8-3.1,6.9-6.9,6.9c-3.8,0-6.9-3.1-6.9-6.9c0-3.8,3.1-6.9,6.9-6.9C11.8,1.1,14.9,4.2,14.9,8z"/>
	</g>
</g>
</svg>
