<?xml version="1.0" encoding="utf-8"?>
<!-- Generator: Adobe Illustrator 22.0.1, SVG Export Plug-In . SVG Version: 6.00 Build 0)  -->
<svg version="1.1" id="Layer_1" xmlns="http://www.w3.org/2000/svg" xmlns:xlink="http://www.w3.org/1999/xlink" x="0px" y="0px"
	 viewBox="0 0 512 512" style="enable-background:new 0 0 512 512;" xml:space="preserve">
<style type="text/css">
	.st0{fill:#040725;}
</style>
<g>
	<path class="st0" d="M256,501.1h130.2h33.5c16.9,0,30.5-13.7,30.5-30.5V150.8h-10.6c-0.9,0.1-1.8,0.1-2.7,0.1h-66.6h-17.1
		c-23.7,0-43-19.3-43-43V90.8V24.3c0-1.1,0.1-2.2,0.2-3.2V10.9H256H92.3c-16.9,0-30.5,13.7-30.5,30.5v32v397.1
		c0,16.9,13.7,30.5,30.5,30.5H256L256,501.1z M235.4,398.4c0-8,6.5-14.4,14.4-14.4h106.8c8,0,14.4,6.5,14.4,14.4
		c0,8-6.5,14.4-14.4,14.4H249.9C241.9,412.8,235.4,406.4,235.4,398.4z M128.6,324.8c0-8,6.5-14.4,14.4-14.4h213.5
		c8,0,14.4,6.5,14.4,14.4c0,8-6.5,14.4-14.4,14.4H143.1C135.1,339.2,128.6,332.7,128.6,324.8z M371,246.6c0,8-6.5,14.4-14.4,14.4
		H143.1c-8,0-14.4-6.5-14.4-14.4s6.5-14.4,14.4-14.4h213.5C364.5,232.1,371,238.6,371,246.6z"/>
	<path class="st0" d="M446,111.6l-96.5-96.4c-2.7-2.7-5.8-3.8-9-3.8c-6.6,0-12.9,5.1-12.9,12.9v83.7c0,0.1,0,0.2,0,0.2
		c0.1,14,11.4,25.3,25.4,25.4c0.1,0,0.2,0,0.2,0h83.6C448.4,133.6,454.1,119.7,446,111.6z"/>
</g>
</svg>
