<?xml version="1.0" encoding="utf-8"?>
<!-- Generator: Adobe Illustrator 25.2.1, SVG Export Plug-In . SVG Version: 6.00 Build 0)  -->
<svg version="1.1" id="Layer_1" xmlns="http://www.w3.org/2000/svg" xmlns:xlink="http://www.w3.org/1999/xlink" x="0px" y="0px"
	 viewBox="0 0 70 70" style="enable-background:new 0 0 70 70;" xml:space="preserve">
<style type="text/css">
	.st0{fill-rule:evenodd;clip-rule:evenodd;fill:#040725;stroke:#040725;stroke-width:0.5;stroke-miterlimit:10;}
	.st1{fill:#040725;}
</style>
<g id="Layer_1_1_">
</g>
<g>
	<g id="Layer_x0020_1">
		<path class="st0" d="M21.4,26.1c-3.7,0-6.7-3.4-6.7-7.6v-2.2c0-0.8,1.2-0.8,1.2,0v2.2c0,3.5,2.5,6.4,5.5,6.4s5.5-2.8,5.5-6.4
			c0-1.3-0.2-2.6,0.6-2.6s0.6,1.3,0.6,2.6C28.1,22.7,25.1,26.1,21.4,26.1z"/>
		<path class="st0" d="M24.5,28c-0.3,0-0.6-0.3-0.6-0.6v-2.9c0-0.8,1.2-0.8,1.2,0v2.9C25.1,27.7,24.8,28,24.5,28z M18.2,28
			c-0.4,0-0.6-0.3-0.6-0.6v-2.9c0-0.8,1.2-0.8,1.2,0v2.9C18.9,27.7,18.6,28,18.2,28z"/>
		<path class="st0" d="M33,40.6H9.7c-0.3,0-0.6-0.3-0.6-0.6v-7.5c0-3.4,5.3-5.7,8.2-5.7c0.6,0,1.4-0.1,1.4,0.6
			c0,0.8-0.9,0.6-1.4,0.6c-2.6,0-7,2.2-7,4.5v6.9h22v-6.8c-0.4-2.3-4.3-4.5-7-4.5c-0.6,0-1.5,0.2-1.5-0.6c0-0.7,0.9-0.6,1.5-0.6
			c2.9,0,7.7,2.4,8.2,5.6v7.6C33.6,40.3,33.3,40.6,33,40.6z"/>
		<path class="st0" d="M13.9,40.6c-0.3,0-0.6-0.3-0.6-0.6v-4.2c0-0.8,1.2-0.8,1.2,0V40C14.5,40.3,14.2,40.6,13.9,40.6z"/>
		<path class="st0" d="M28.9,40.6c-0.3,0-0.6-0.3-0.6-0.6v-4.2c0-0.8,1.2-0.8,1.2,0V40C29.5,40.3,29.2,40.6,28.9,40.6z"/>
		<path class="st0" d="M27.3,17.1c-1.7,0-3.3-2.1-4-3.2c-4,3.2-6.2-0.4-7.4,2.6c-0.2,0.6-1.2,0.5-1.2-0.2c0-3.5,0.5-1.9-1.3-4
			c-0.2-0.2-0.2-0.6,0-0.8c1.4-1.7,4.2-3,6.7-3.1c1.8-0.1,3.3,0.5,4.5,1.5c1.4,0.2,3.6,1.2,3.6,4.6C28.1,16.3,28.4,17.1,27.3,17.1z
			 M23.4,12.3c0.2,0,0.4,0.1,0.5,0.3c0.7,1.2,2,2.7,2.9,3.2v-1.2c0-3.6-2.7-3.1-3.1-3.6c-2.4-2.5-7.1-1-9.1,0.9
			c1.1,1.2,1.4,1,1.3,2.5c1.9-1.2,4,1.1,7-1.8C23.1,12.4,23.2,12.3,23.4,12.3z"/>
		<path class="st0" d="M48.6,47.2c-3.7,0-6.7-3.4-6.7-7.7v-2.2c0-0.8,1.2-0.8,1.2,0v2.2c0,3.5,2.4,6.4,5.5,6.4c3,0,5.5-2.9,5.5-6.4
			c0-1.2-0.2-2.6,0.6-2.6c0.9,0,0.6,1.3,0.6,2.6C55.3,43.7,52.4,47.2,48.6,47.2z"/>
		<path class="st0" d="M51.8,49.1c-0.3,0-0.6-0.3-0.6-0.6v-2.9c0-0.8,1.2-0.8,1.2,0v2.9C52.4,48.8,52.1,49.1,51.8,49.1z M45.5,49.1
			c-0.3,0-0.6-0.3-0.6-0.6v-2.9c0-0.8,1.2-0.8,1.2,0v2.9C46.1,48.8,45.9,49.1,45.5,49.1z"/>
		<path class="st0" d="M60.3,61.6H37c-0.3,0-0.6-0.2-0.6-0.6v-7.5c0-3.3,5.4-5.7,8.2-5.7c0.6,0,1.5-0.2,1.5,0.6
			c0,0.7-0.9,0.6-1.5,0.6c-2.6,0-7,2.2-7,4.4v6.9h22v-6.8c-0.4-2.3-4.3-4.5-7-4.5c-0.6,0-1.5,0.1-1.5-0.6c0-0.8,0.9-0.6,1.5-0.6
			c3,0,8,2.6,8.2,5.7V61C60.9,61.4,60.6,61.6,60.3,61.6z"/>
		<path class="st0" d="M41.1,61.6c-0.3,0-0.6-0.3-0.6-0.6v-4.2c0-0.8,1.2-0.8,1.2,0V61C41.8,61.4,41.5,61.6,41.1,61.6z"/>
		<path class="st0" d="M56.1,61.6c-0.3,0-0.6-0.3-0.6-0.6v-4.2c0-0.8,1.2-0.8,1.2,0V61C56.8,61.4,56.5,61.6,56.1,61.6z"/>
		<path class="st0" d="M54.6,38.2c-1.7,0-3.3-2.1-4.1-3.2c-4,3.2-6.2-0.4-7.4,2.6c-0.2,0.6-1.2,0.4-1.2-0.2c0-3.5,0.5-1.9-1.3-4
			c-0.2-0.2-0.2-0.6,0-0.8c1.4-1.7,4.2-3,6.7-3.1c1.8-0.1,3.3,0.5,4.5,1.5c1.4,0.2,3.6,1.2,3.6,4.6C55.3,37.3,55.6,38.2,54.6,38.2z
			 M50.6,33.4c0.2,0,0.4,0.1,0.6,0.3c0.7,1.2,1.9,2.7,2.9,3.2v-1.2c0-3.6-2.7-3.1-3.1-3.6c-2.3-2.5-7.1-1-9.1,0.9
			c1.1,1.2,1.4,1,1.3,2.5c1.9-1.2,3.9,1.1,7-1.9C50.3,33.4,50.5,33.4,50.6,33.4z"/>
	</g>
	<g>
		<path class="st1" d="M20.1,59.2c-0.3,0-0.6-0.1-0.9-0.4L14.4,54c-0.5-0.5-0.5-1.2,0-1.7s1.2-0.5,1.7,0l3.9,3.9l7.6-8.6
			c0.4-0.5,1.2-0.6,1.7-0.1c0.5,0.4,0.5,1.2,0.1,1.7L21,58.8C20.8,59.1,20.5,59.2,20.1,59.2L20.1,59.2z"/>
	</g>
	<g>
		<path class="st1" d="M43.3,24c-0.3,0-0.6-0.1-0.9-0.4l-4.8-4.8c-0.5-0.5-0.5-1.2,0-1.7s1.2-0.5,1.7,0l3.9,3.9l7.6-8.6
			c0.4-0.5,1.2-0.6,1.7-0.1c0.5,0.4,0.5,1.2,0.1,1.7l-8.4,9.6C44,23.8,43.7,24,43.3,24L43.3,24z"/>
	</g>
</g>
</svg>
