<?xml version="1.0" encoding="utf-8"?>
<!-- Generator: Adobe Illustrator 25.2.1, SVG Export Plug-In . SVG Version: 6.00 Build 0)  -->
<svg version="1.1" id="Layer_1" xmlns="http://www.w3.org/2000/svg" xmlns:xlink="http://www.w3.org/1999/xlink" x="0px" y="0px"
	 viewBox="0 0 70 70" style="enable-background:new 0 0 70 70;" xml:space="preserve">
<style type="text/css">
	.st0{fill:#E5E5E5;}
	.st1{fill:#040725;}
	.st2{fill:#EBB30A;}
</style>
<g>
	<g id="Icon">
		<path class="st0" d="M47.8,53.1l-4.6,2c-0.6,0.3-1.3,0-1.5-0.6c-0.1-0.3-0.1-0.6,0-0.9c0.6-1.8,1.4-3.9,1.5-4.1c0,0,0,0,0,0
			c-3.8-5.2-2.8-12.4,2.4-16.3c1.5-1.1,3.2-1.8,5-2.1c1-0.2,1.9-0.2,2.9-0.1V19.8c0-0.3-0.1-0.6-0.2-0.9H42.4
			c-1.6,0-2.9-1.3-2.9-2.9v0.6H24.4c-1.3,0-2.3-1-2.3-2.3v-1.2c0-1.3,1-2.3,2.3-2.3h15.1V4c-0.3-0.2-0.7-0.2-1-0.2H15.1
			c-1.3,0-2.3,1-2.3,2.3v51.8c0,1.3,1,2.3,2.3,2.3h36.1c1.3,0,2.3-1,2.3-2.3v-3.8C51.5,54.3,49.6,53.9,47.8,53.1z M22.1,51.8
			c0,0.6-0.5,1.2-1.2,1.2h-2.3c-0.6,0-1.2-0.5-1.2-1.2v-2.3c0-0.6,0.5-1.2,1.2-1.2h2.3c0.6,0,1.2,0.5,1.2,1.2V51.8z M22.1,42.5
			c0,0.6-0.5,1.2-1.2,1.2h-2.3c-0.6,0-1.2-0.5-1.2-1.2v-2.3c0-0.6,0.5-1.2,1.2-1.2h2.3c0.6,0,1.2,0.5,1.2,1.2V42.5z M22.1,33.2
			c0,0.6-0.5,1.2-1.2,1.2h-2.3c-0.6,0-1.2-0.5-1.2-1.2v-2.3c0-0.6,0.5-1.2,1.2-1.2h2.3c0.6,0,1.2,0.5,1.2,1.2V33.2z M22.1,24.9
			c0,0.6-0.5,1.2-1.2,1.2h-2.3c-0.6,0-1.2-0.5-1.2-1.2v-2.3c0-0.6,0.5-1.2,1.2-1.2h2.3c0.6,0,1.2,0.5,1.2,1.2V24.9z"/>
	</g>
	<g id="Line">
		<path class="st1" d="M65.2,44.5c-0.9,5.4-5.1,9.7-10.6,10.6v2.8c0,1.9-1.6,3.5-3.5,3.5h-3.5v2.5c0,1.9-1.6,3.5-3.5,3.5H8.1
			c-1.9,0-3.5-1.6-3.5-3.5V13.1c0-1.9,1.6-3.5,3.5-3.5h3.5V6.1c0-1.9,1.6-3.5,3.5-3.5h23.4c1,0,1.9,0.4,2.6,1.1l12.7,13.7
			c0.6,0.6,0.9,1.5,0.9,2.4v10.1C61.6,31,66.3,37.6,65.2,44.5L65.2,44.5z M40.7,6.7v9.8c0,0.6,0.5,1.2,1.2,1.2h9L40.7,6.7z
			 M45.3,61.4H15.1c-1.9,0-3.5-1.6-3.5-3.5v-46H8.1c-0.6,0-1.2,0.5-1.2,1.2v50.8c0,0.6,0.5,1.2,1.2,1.2h36.1c0.6,0,1.2-0.5,1.2-1.2
			V61.4z M52.3,57.9v-2.6c-1.5,0-3.1-0.3-4.5-0.9l-4.1,1.8c-1.2,0.5-2.5,0-3.1-1.2c-0.2-0.5-0.3-1.2,0-1.7l0.5-1.5H26.7
			c-0.6,0-1.2-0.5-1.2-1.2s0.5-1.2,1.2-1.2h15.1c-1.4-2.1-2.1-4.5-2.1-7h-13c-0.6,0-1.2-0.5-1.2-1.2s0.5-1.2,1.2-1.2H40
			c0.5-2.7,1.8-5.1,3.8-7H26.7c-0.6,0-1.2-0.5-1.2-1.2s0.5-1.2,1.2-1.2h20.5c1.6-0.7,3.3-1.1,5.1-1.1v-9.6H41.8
			c-1.5,0-2.8-0.9-3.3-2.3H24.4c-1.9,0-3.5-1.6-3.5-3.5v-1.2c0-1.9,1.6-3.5,3.5-3.5h14V4.9H15.1c-0.6,0-1.2,0.5-1.2,1.2v51.8
			c0,0.6,0.5,1.2,1.2,1.2h36.1C51.8,59.1,52.3,58.6,52.3,57.9z M38.4,11.9h-14c-0.6,0-1.2,0.5-1.2,1.2v1.2c0,0.6,0.5,1.2,1.2,1.2h14
			V11.9z M59.9,35.1c-4.1-4.1-10.7-4.1-14.8,0c-3.7,3.7-4.1,9.5-1,13.7c0.2,0.3,0.3,0.7,0.2,1.1L42.8,54l4.6-2
			c0.3-0.1,0.6-0.1,0.9,0c2,0.9,4.3,1.1,6.5,0.7c5.7-1.2,9.2-6.8,8-12.5C62.4,38.3,61.4,36.5,59.9,35.1z M20.9,24.9l0-2.3h-2.3v2.3
			H20.9z M26.7,24.9h22.1c0.6,0,1.2-0.5,1.2-1.2c0-0.6-0.5-1.2-1.2-1.2H26.7c-0.6,0-1.2,0.5-1.2,1.2C25.6,24.3,26.1,24.9,26.7,24.9z
			 M20.9,33.2l0-2.3h-2.3v2.3H20.9z M20.9,42.5l0-2.3h-2.3v2.3H20.9z M20.9,51.8l0-2.3h-2.3v2.3H20.9z"/>
	</g>
	<path class="st2" d="M52.6,49.5c-0.9,0-1.5-0.7-1.5-1.6c0-0.8,0.7-1.5,1.5-1.5c0.9,0,1.6,0.7,1.6,1.6
		C54.2,48.8,53.5,49.5,52.6,49.5C52.6,49.5,52.6,49.5,52.6,49.5z"/>
	<path class="st2" d="M56.6,36.3c-1.7-2.4-7.3-2.2-7.7,1.1c0,0.6,0.5,1.1,1.2,1.1c0.2,0,0.5-0.1,0.7-0.2c0.5-0.8,1-1.4,2.1-1.3
		c1.3-0.1,2.3,0.9,1.6,2.1c-0.3,0.7-1.1,1.1-1.6,1.5c-1.2,1-1.7,2.7-1.1,4.1c0.6,0.4,1.3,0.4,1.8,0c0.5-0.7,0-1.6,0.6-2.3
		c0.5-0.7,1.5-1.3,2.1-2.1C57.3,39.3,57.5,37.6,56.6,36.3L56.6,36.3z"/>
</g>
</svg>
