<?xml version="1.0" encoding="utf-8"?>
<!-- Generator: Adobe Illustrator 25.2.1, SVG Export Plug-In . SVG Version: 6.00 Build 0)  -->
<svg version="1.1" id="Capa_1" xmlns="http://www.w3.org/2000/svg" xmlns:xlink="http://www.w3.org/1999/xlink" x="0px" y="0px"
	 viewBox="0 0 496 496" style="enable-background:new 0 0 496 496;" xml:space="preserve">
<style type="text/css">
	.st0{fill:none;stroke:#BCBCBC;stroke-width:15.36;stroke-linecap:round;stroke-linejoin:round;stroke-miterlimit:102.4;}
</style>
<g>
	<path class="st0" d="M429.4,486.1H66.6c-17.4,0-30.7-13.3-30.7-30.7V40.6c0-17.4,13.3-30.7,30.7-30.7h362.8
		c17.4,0,30.7,13.3,30.7,30.7v414.7C460.1,471.7,446.8,486.1,429.4,486.1z"/>
	<g>
		<g>
			<g>
				<g>
					<g>
						<g>
							<g>
								
									<ellipse transform="matrix(0.1602 -0.9871 0.9871 0.1602 61.372 231.2382)" class="st0" cx="166.6" cy="79.6" rx="28.7" ry="28.7"/>
								<g>
									<path class="st0" d="M209.6,207.6c11.3,0,20.5-9.2,20.5-20.5c0-45.1-28.7-56.3-64.5-56.3S101,142,101,187.1
										c0,11.3,9.2,20.5,20.5,20.5H209.6z"/>
								</g>
								<g>
									<path class="st0" d="M200.4,207.6v-20.5"/>
									<path class="st0" d="M132.8,207.6v-20.5"/>
								</g>
							</g>
						</g>
					</g>
				</g>
			</g>
		</g>
	</g>
	<g>
		<g>
			<g>
				<path class="st0" d="M168.6,247.5h226.3"/>
				<path class="st0" d="M102.1,247.5h25.6"/>
				<path class="st0" d="M102.1,306.9h140.3"/>
				<path class="st0" d="M168.6,365.2h73.7"/>
				<path class="st0" d="M102.1,365.2h25.6"/>
				<path class="st0" d="M102.1,424.6h140.3"/>
			</g>
			<g>
				<path class="st0" d="M345.8,70.3h49.2"/>
				<path class="st0" d="M275.1,70.3h29.7"/>
				<path class="st0" d="M275.1,129.7h119.8"/>
				<path class="st0" d="M275.1,188.1h119.8"/>
			</g>
		</g>
		<g>
			<path class="st0" d="M282.3,312h112.6v112.6H282.3V312z"/>
			<path class="st0" d="M313,375.5l12.3,12.3l38.9-38.9"/>
		</g>
	</g>
</g>
</svg>
