<?xml version="1.0" encoding="utf-8"?>
<!-- Generator: Adobe Illustrator 25.2.1, SVG Export Plug-In . SVG Version: 6.00 Build 0)  -->
<svg version="1.1" id="Layer_1" xmlns="http://www.w3.org/2000/svg" xmlns:xlink="http://www.w3.org/1999/xlink" x="0px" y="0px"
	 viewBox="0 0 120 120" style="enable-background:new 0 0 120 120;" xml:space="preserve">
<style type="text/css">
	.st0{fill:#040725;}
	.st1{fill:#EBB30A;}
</style>
<g>
	<path class="st0" d="M52.6,31.5H14.1c-1,0-1.8,0.8-1.8,1.8s0.8,1.8,1.8,1.8h38.6c1,0,1.8-0.8,1.8-1.8
		C54.5,32.4,53.7,31.5,52.6,31.5z"/>
	<path class="st0" d="M52.6,38.9H14.1c-1,0-1.8,0.8-1.8,1.8s0.8,1.8,1.8,1.8h38.6c1,0,1.8-0.8,1.8-1.8
		C54.5,39.7,53.7,38.9,52.6,38.9z"/>
	<path class="st0" d="M52.6,46.2H14.1c-1,0-1.8,0.8-1.8,1.8c0,1,0.8,1.8,1.8,1.8h38.6c1,0,1.8-0.8,1.8-1.8
		C54.5,47,53.7,46.2,52.6,46.2z"/>
	<path class="st0" d="M54.5,100.4c0-1-0.8-1.8-1.8-1.8H14.1c-1,0-1.8,0.8-1.8,1.8s0.8,1.8,1.8,1.8h38.6
		C53.7,102.3,54.5,101.4,54.5,100.4z"/>
	<path class="st0" d="M14.1,105.9c-1,0-1.8,0.8-1.8,1.8s0.8,1.8,1.8,1.8h26.6c1,0,1.8-0.8,1.8-1.8s-0.8-1.8-1.8-1.8H14.1z"/>
	<path class="st0" d="M40.7,72.9c1,0,1.8-0.8,1.8-1.8s-0.8-1.8-1.8-1.8H14.1c-1,0-1.8,0.8-1.8,1.8s0.8,1.8,1.8,1.8H40.7z"/>
	<path class="st0" d="M12.2,87.6c0,1,0.4,1.9,1.1,2.6c0.7,0.7,1.6,1.1,2.6,1.1h7.4c1,0,1.9-0.4,2.6-1.1c0.7-0.7,1.1-1.6,1.1-2.6
		v-7.4c0-1-0.4-1.9-1.1-2.6c-0.7-0.7-1.6-1.1-2.6-1.1h-7.4c-1,0-1.9,0.4-2.6,1.1c-0.7,0.7-1.1,1.6-1.1,2.6V87.6z M15.9,80.2h7.4v7.4
		h-7.4V80.2z"/>
	<path class="st0" d="M51.5,64.4l2.5-2.5h-40c-1,0-1.8,0.8-1.8,1.8c0,1,0.8,1.8,1.8,1.8h36.6C50.9,65.1,51.2,64.7,51.5,64.4
		L51.5,64.4z"/>
	<path class="st0" d="M85.5,30.4c-0.2-0.7-0.7-1.4-1.3-1.8c-0.6-0.4-1.4-0.7-2.1-0.7H63.7c-1,0-1.9,0.4-2.6,1.1
		c-0.7,0.7-1.1,1.6-1.1,2.6v18.4c0,0.8,0.2,1.5,0.7,2.1c0.4,0.6,1.1,1.1,1.8,1.3l3.5-3.5h-2.3V31.5H82v2.3L85.5,30.4z"/>
	<path class="st0" d="M69.1,83.6l-1.8,0.6v3.4c0,1,0.4,1.9,1.1,2.6c0.7,0.7,1.6,1.1,2.6,1.1h7.4c1,0,1.9-0.4,2.6-1.1
		c0.7-0.7,1.1-1.6,1.1-2.6v-7.4c0-1-0.4-1.9-1.1-2.6c-0.7-0.7-1.6-1.1-2.6-1.1H77l-3.7,3.7h5.1v7.4H71v-5.1
		C70.5,83,69.8,83.4,69.1,83.6L69.1,83.6z"/>
	<path class="st0" d="M46.2,80.2l1.1-3.7h-3.8c-1,0-1.9,0.4-2.6,1.1c-0.7,0.7-1.1,1.6-1.1,2.6v7.4c0,1,0.4,1.9,1.1,2.6
		c0.7,0.7,1.6,1.1,2.6,1.1h7.4c0.8,0,1.6-0.3,2.2-0.8c0.6-0.5,1.1-1.2,1.3-2l-1.8,0.6l0,0c-1,0.3-2,0.4-3,0.1
		c-1-0.2-1.9-0.7-2.6-1.4c-0.1-0.1-0.2-0.2-0.3-0.3h-3.3v-7.4L46.2,80.2z"/>
	<path class="st0" d="M96.8,19.1V8.6c0-2-0.8-3.8-2.1-5.2c-1.4-1.4-3.2-2.1-5.2-2.1H8.6c-2,0-3.8,0.8-5.2,2.1C2,4.8,1.2,6.6,1.2,8.6
		v102.9c0,2,0.8,3.8,2.1,5.2c1.4,1.4,3.2,2.1,5.2,2.1h80.8c2,0,3.8-0.8,5.2-2.1c1.4-1.4,2.1-3.2,2.1-5.2V56.8L93,60.4v51
		c0,1-0.4,1.9-1.1,2.6c-0.7,0.7-1.6,1.1-2.6,1.1H8.6c-1,0-1.9-0.4-2.6-1.1c-0.7-0.7-1.1-1.6-1.1-2.6V17.7h88.2v5.1L96.8,19.1z
		 M4.9,14.1V8.6c0-1,0.4-1.9,1.1-2.6s1.6-1.1,2.6-1.1h80.8c1,0,1.9,0.4,2.6,1.1c0.7,0.7,1.1,1.6,1.1,2.6v5.5H4.9z"/>
	<path class="st1" d="M107.2,16.5c-0.3-0.3-0.8-0.5-1.3-0.5s-1,0.2-1.3,0.5L54.1,67c-0.2,0.2-0.4,0.5-0.5,0.8L49,83.4
		c-0.2,0.7,0,1.4,0.5,1.9c0.5,0.5,1.2,0.6,1.9,0.4l16.5-5.5c0.3-0.1,0.5-0.2,0.7-0.4l49.6-49.6c0.3-0.3,0.5-0.8,0.5-1.3
		c0-0.5-0.2-1-0.5-1.3L107.2,16.5z M53.6,81l3.5-11.8l0.2-0.2l8.1,8.1L53.6,81z M68.3,74.9l-8.4-8.4l39.7-39.7l8.4,8.4L68.3,74.9z
		 M110.5,32.6l-8.4-8.4l3.8-3.8l8.4,8.4L110.5,32.6z"/>
</g>
</svg>
