<?xml version="1.0" encoding="utf-8"?>
<!-- Generator: Adobe Illustrator 25.2.1, SVG Export Plug-In . SVG Version: 6.00 Build 0)  -->
<svg version="1.1" id="Layer_1" xmlns="http://www.w3.org/2000/svg" xmlns:xlink="http://www.w3.org/1999/xlink" x="0px" y="0px"
	 viewBox="0 0 120 120" style="enable-background:new 0 0 120 120;" xml:space="preserve">
<style type="text/css">
	.st0{fill:#040725;}
	.st1{fill:#EBB30A;}
</style>
<path class="st0" d="M111.5,75.7c-6.6-6.6-16.3-8.2-24.4-4.8v-43c0-1.6-0.6-3.1-1.8-4.3L65,3.3c-0.5-0.5-1-0.9-1.6-1.2c0,0,0,0,0,0
	c0,0-0.1,0-0.1,0c-0.1,0-0.1,0-0.2-0.1c-0.8-0.3-1.6-0.5-2.4-0.5h-52c-3.5,0-6.4,2.9-6.4,6.4v104.3c0,3.5,2.9,6.4,6.4,6.4h72
	c3.4,0,6.2-2.6,6.4-6c0,0,0-0.1,0-0.1V112c2.8,1.2,5.7,1.7,8.6,1.7c5.7,0,11.4-2.2,15.8-6.5c4.2-4.2,6.5-9.8,6.5-15.8
	S115.7,79.9,111.5,75.7L111.5,75.7z M79.6,24.1H65c-0.3,0-0.5-0.2-0.5-0.5V9L79.6,24.1z M82.7,112.4c-0.1,1-0.9,1.8-2,1.8h-72
	c-1.1,0-2-0.9-2-2V7.9c0-1.1,0.9-2,2-2h51.4v17.7c0,2.7,2.2,4.9,4.9,4.9h17.7v44.9c-1,0.7-1.9,1.5-2.7,2.3
	c-4.2,4.2-6.5,9.8-6.5,15.8s2.3,11.5,6.5,15.8c0.9,0.9,1.8,1.6,2.7,2.3L82.7,112.4L82.7,112.4z M108.4,104.1c-7,7-18.3,7-25.3,0
	c-3.4-3.4-5.2-7.9-5.2-12.6c0-4.8,1.9-9.3,5.2-12.6c3.5-3.5,8.1-5.2,12.6-5.2s9.2,1.7,12.6,5.2c3.4,3.4,5.2,7.9,5.2,12.6
	C113.6,96.2,111.8,100.7,108.4,104.1z"/>
<path class="st0" d="M17.9,40.7h33.8c1.2,0,2.2-1,2.2-2.2s-1-2.2-2.2-2.2H17.9c-1.2,0-2.2,1-2.2,2.2S16.6,40.7,17.9,40.7z"/>
<path class="st0" d="M59.3,76H17.9c-1.2,0-2.2,1-2.2,2.2s1,2.2,2.2,2.2h41.4c1.2,0,2.2-1,2.2-2.2S60.5,76,59.3,76L59.3,76z"/>
<path class="st0" d="M59.3,89.2H17.9c-1.2,0-2.2,1-2.2,2.2s1,2.2,2.2,2.2h41.4c1.2,0,2.2-1,2.2-2.2S60.5,89.2,59.3,89.2L59.3,89.2z"
	/>
<path class="st0" d="M71.7,62.7H17.9c-1.2,0-2.2,1-2.2,2.2c0,1.2,1,2.2,2.2,2.2h53.8c1.2,0,2.2-1,2.2-2.2
	C73.9,63.7,72.9,62.7,71.7,62.7z"/>
<path class="st0" d="M17.6,54.1h42.8c1.2,0,2.2-1,2.2-2.2s-1-2.2-2.2-2.2H17.6c-1.2,0-2.2,1-2.2,2.2S16.4,54.1,17.6,54.1z"/>
<circle class="st0" cx="71.4" cy="51.8" r="2.2"/>
<path class="st1" d="M103.6,83.7c-0.9-0.9-2.3-0.9-3.1,0l-4.7,4.7l-4.6-4.6c-0.9-0.9-2.3-0.9-3.1,0c-0.9,0.9-0.9,2.3,0,3.1l4.6,4.6
	l-4.7,4.7c-0.9,0.9-0.9,2.3,0,3.1c0.4,0.4,1,0.6,1.6,0.6s1.1-0.2,1.6-0.6l4.7-4.7l4.6,4.6c0.4,0.4,1,0.6,1.6,0.6
	c0.6,0,1.1-0.2,1.6-0.6c0.9-0.9,0.9-2.3,0-3.1l-4.6-4.6l4.7-4.7C104.4,85.9,104.4,84.5,103.6,83.7L103.6,83.7z"/>
</svg>
