<?xml version="1.0" encoding="utf-8"?>
<!-- Generator: Adobe Illustrator 25.2.1, SVG Export Plug-In . SVG Version: 6.00 Build 0)  -->
<svg version="1.1" id="Layer_1" xmlns="http://www.w3.org/2000/svg" xmlns:xlink="http://www.w3.org/1999/xlink" x="0px" y="0px"
	 viewBox="0 0 70 70" style="enable-background:new 0 0 70 70;" xml:space="preserve">
<style type="text/css">
	.st0{fill:#A8A8A8;}
	.st1{fill:#040725;}
	.st2{fill:#EBB30A;}
</style>
<path class="st0" d="M56.7,10.1H12.1c-3.2,0-5.9,2.6-5.9,5.9v46.1h56.4V16C62.6,12.8,60,10.1,56.7,10.1z M12.1,12.5h44.7
	c2,0,3.5,1.6,3.5,3.5v10.6H8.5V16C8.5,14.1,10.1,12.5,12.1,12.5z M8.5,59.8V29h51.7v30.7H8.5z"/>
<path class="st1" d="M47.8,51.4c-1,0-1.8-0.7-1.8-1.8c0-0.9,0.7-1.8,1.8-1.8c1,0,1.8,0.7,1.8,1.8C49.7,50.7,48.8,51.4,47.8,51.4
	L47.8,51.4z"/>
<path class="st1" d="M51.8,36.4c-1.9-2.7-8.2-2.5-8.7,1.2c0,0.7,0.6,1.2,1.3,1.2c0.3,0,0.6-0.1,0.7-0.3c0.6-0.9,1.2-1.6,2.4-1.5
	c1.5-0.1,2.6,1,1.8,2.4c-0.3,0.7-1.2,1.2-1.8,1.8c-1.3,1.2-1.9,3.1-1.2,4.6c0.7,0.4,1.5,0.4,2.1,0c0.6-0.7,0-1.8,0.7-2.7
	c0.6-0.7,1.8-1.5,2.4-2.4C52.5,39.8,52.8,37.9,51.8,36.4L51.8,36.4z"/>
<rect x="12.8" y="35.1" class="st0" width="19.8" height="2.2"/>
<rect x="12.8" y="42" class="st0" width="19.8" height="2.2"/>
<rect x="12.8" y="49.5" class="st0" width="15" height="2.2"/>
<path class="st2" d="M45.8,22.3L45.8,22.3c-1.4,0-2.6-1.2-2.6-2.6v-0.1c0-1.4,1.2-2.6,2.6-2.6h0c1.4,0,2.6,1.2,2.6,2.6v0.1
	C48.4,21.1,47.2,22.3,45.8,22.3z"/>
<path class="st2" d="M37.9,22.3L37.9,22.3c-1.4,0-2.6-1.2-2.6-2.6v-0.1c0-1.4,1.2-2.6,2.6-2.6h0c1.4,0,2.6,1.2,2.6,2.6v0.1
	C40.5,21.1,39.4,22.3,37.9,22.3z"/>
<path class="st2" d="M53.7,22.3L53.7,22.3c-1.4,0-2.6-1.2-2.6-2.6v-0.1c0-1.4,1.2-2.6,2.6-2.6h0c1.4,0,2.6,1.2,2.6,2.6v0.1
	C56.3,21.1,55.1,22.3,53.7,22.3z"/>
</svg>
