<?xml version="1.0" encoding="utf-8"?>
<!-- Generator: Adobe Illustrator 25.2.1, SVG Export Plug-In . SVG Version: 6.00 Build 0)  -->
<svg version="1.1" id="Layer_1" xmlns="http://www.w3.org/2000/svg" xmlns:xlink="http://www.w3.org/1999/xlink" x="0px" y="0px"
	 viewBox="0 0 70 70" style="enable-background:new 0 0 70 70;" xml:space="preserve">
<style type="text/css">
	.st0{fill:#040725;}
</style>
<g>
	<g>
		<path class="st0" d="M56.1,11.7H13.7c-3.1,0-5.6,2.5-5.6,5.6v41h53.8V17.4C61.8,14.3,59.3,11.7,56.1,11.7z M13.7,14h42.7
			c1.9,0,3.4,1.5,3.4,3.4v7.1H10.2v-7.1C10.2,15.5,11.7,14,13.7,14z M10.2,56.2V26.8h49.4v29.3L10.2,56.2L10.2,56.2z"/>
		<path class="st0" d="M47.7,48.1c-1,0-1.8-0.7-1.8-1.8c0-0.9,0.7-1.8,1.8-1.8c1,0,1.8,0.7,1.8,1.8S48.7,48.1,47.7,48.1L47.7,48.1z"
			/>
		<path class="st0" d="M51.5,33.9c-1.9-2.6-7.8-2.4-8.3,1.1c0,0.7,0.5,1.1,1.2,1.1c0.3,0,0.5-0.1,0.7-0.3c0.5-0.9,1.1-1.5,2.3-1.4
			c1.4-0.1,2.5,1,1.8,2.3c-0.3,0.7-1.1,1.1-1.8,1.8c-1.2,1.1-1.9,3-1.1,4.4c0.7,0.3,1.4,0.3,2,0c0.5-0.7,0-1.8,0.7-2.6
			c0.5-0.7,1.8-1.4,2.3-2.3C52.2,37.1,52.4,35.3,51.5,33.9L51.5,33.9z"/>
		<path class="st0" d="M47.1,21.2L47.1,21.2c-1,0-2-0.8-2-1.9v-0.1c0-1,0.9-1.9,2-1.9l0,0c1,0,2,0.8,2,1.9v0.1
			C49,20.3,48.2,21.2,47.1,21.2z"/>
		<path class="st0" d="M40.1,21.2L40.1,21.2c-1,0-2-0.8-2-1.9v-0.1c0-1,0.9-1.9,2-1.9l0,0c1,0,2,0.8,2,1.9v0.1
			C42,20.3,41.2,21.2,40.1,21.2z"/>
		<path class="st0" d="M53.8,21.2L53.8,21.2c-1,0-2-0.8-2-1.9v-0.1c0-1,0.9-1.9,2-1.9l0,0c1,0,2,0.8,2,1.9v0.1
			C55.8,20.3,54.8,21.2,53.8,21.2z"/>
	</g>
	<g>
		<path class="st0" d="M33.6,35.6H16.2c-0.7,0-1.2-0.5-1.2-1.2s0.5-1.2,1.2-1.2h17.4c0.7,0,1.2,0.5,1.2,1.2S34.3,35.6,33.6,35.6z"/>
	</g>
	<g>
		<path class="st0" d="M33.6,44.3H16.2c-0.7,0-1.2-0.5-1.2-1.2s0.5-1.2,1.2-1.2h17.4c0.7,0,1.2,0.5,1.2,1.2S34.3,44.3,33.6,44.3z"/>
	</g>
</g>
</svg>
