<?xml version="1.0" encoding="utf-8"?>
<!-- Generator: Adobe Illustrator 25.2.1, SVG Export Plug-In . SVG Version: 6.00 Build 0)  -->
<svg version="1.1" id="Layer_1" xmlns="http://www.w3.org/2000/svg" xmlns:xlink="http://www.w3.org/1999/xlink" x="0px" y="0px"
	 viewBox="0 0 70 70" style="enable-background:new 0 0 70 70;" xml:space="preserve">
<style type="text/css">
	.st0{fill:#040725;stroke:#040725;stroke-width:0.5;stroke-miterlimit:10;}
</style>
<g id="_x33_1_Time_Management">
	<g>
		<path class="st0" d="M59.1,19.2L47.2,9.4c-0.1-0.1-0.3-0.2-0.5-0.2H27.5c-2,0-3.6,1.6-3.6,3.6v14.1c-8.5,0.3-15.3,7.4-15.3,15.9
			c0,8.8,7.2,15.9,15.9,15.9h31.1c2,0,3.6-1.6,3.6-3.6V19.7C59.3,19.5,59.2,19.3,59.1,19.2L59.1,19.2z M47.4,11.4L57,19h-7.4
			c-1.2,0-2.3-1-2.3-2.3L47.4,11.4L47.4,11.4z M24.6,57.5c-8.1,0-14.6-6.6-14.6-14.6s6.6-14.6,14.6-14.6c8.1,0,14.6,6.6,14.6,14.6
			S32.7,57.5,24.6,57.5z M58,55.2c0,1.2-1,2.3-2.3,2.3H30.9c5.7-2.5,9.6-8.1,9.6-14.6c0-8.6-6.8-15.6-15.3-15.9V12.8
			c0-1.2,1-2.3,2.3-2.3h18.6v6.2c0,2,1.6,3.6,3.6,3.6H58V55.2L58,55.2z"/>
		<path class="st0" d="M24.6,30c-0.4,0-0.7,0.3-0.7,0.7v1.8c0,0.4,0.3,0.7,0.7,0.7c0.4,0,0.7-0.3,0.7-0.7v-1.8
			C25.3,30.3,25,30,24.6,30z"/>
		<path class="st0" d="M16.4,33.7c-0.3-0.3-0.7-0.3-0.9,0c-0.3,0.3-0.3,0.7,0,0.9l1.3,1.3c0.3,0.3,0.7,0.3,0.9,0
			c0.3-0.3,0.3-0.7,0-0.9L16.4,33.7z"/>
		<path class="st0" d="M14.2,42.2h-1.8c-0.4,0-0.7,0.3-0.7,0.7s0.3,0.7,0.7,0.7h1.8c0.4,0,0.7-0.3,0.7-0.7
			C14.8,42.5,14.5,42.2,14.2,42.2z"/>
		<path class="st0" d="M16.8,49.7L15.5,51c-0.3,0.3-0.3,0.7,0,0.9c0.3,0.3,0.7,0.3,0.9,0l1.3-1.3c0.3-0.3,0.3-0.7,0-0.9
			S17,49.5,16.8,49.7z"/>
		<path class="st0" d="M24.6,52.6c-0.4,0-0.7,0.3-0.7,0.7V55c0,0.4,0.3,0.7,0.7,0.7c0.4,0,0.7-0.3,0.7-0.7v-1.8
			C25.3,52.9,25,52.6,24.6,52.6z"/>
		<path class="st0" d="M32.4,49.7c-0.3-0.3-0.7-0.3-0.9,0c-0.3,0.3-0.3,0.7,0,0.9l1.3,1.3c0.3,0.3,0.7,0.3,0.9,0
			c0.3-0.3,0.3-0.7,0-0.9L32.4,49.7z"/>
		<path class="st0" d="M36.8,43.5c0.4,0,0.7-0.3,0.7-0.7s-0.3-0.7-0.7-0.7H35c-0.4,0-0.7,0.3-0.7,0.7s0.3,0.7,0.7,0.7H36.8z"/>
		<path class="st0" d="M32.8,33.7L31.5,35c-0.3,0.3-0.3,0.7,0,0.9c0.3,0.3,0.7,0.3,0.9,0l1.3-1.3c0.3-0.3,0.3-0.7,0-0.9
			S33,33.5,32.8,33.7z"/>
		<path class="st0" d="M24.6,37.2c-0.4,0-0.7,0.3-0.7,0.7v4.4h-3.5c-0.4,0-0.7,0.3-0.7,0.7s0.3,0.7,0.7,0.7h4.1
			c0.4,0,0.7-0.3,0.7-0.7v-5C25.3,37.5,25,37.2,24.6,37.2L24.6,37.2z"/>
		<path class="st0" d="M37.5,25.7c0,0.4,0.3,0.7,0.7,0.7h13.3c0.4,0,0.7-0.3,0.7-0.7S51.9,25,51.5,25H38.2
			C37.8,25.1,37.5,25.3,37.5,25.7z"/>
		<path class="st0" d="M51.5,33.2h-5.9c-0.4,0-0.7,0.3-0.7,0.7s0.3,0.7,0.7,0.7h5.9c0.4,0,0.7-0.3,0.7-0.7
			C52.1,33.5,51.8,33.2,51.5,33.2L51.5,33.2z"/>
		<path class="st0" d="M51.5,41.3h-5.9c-0.4,0-0.7,0.3-0.7,0.7s0.3,0.7,0.7,0.7h5.9c0.4,0,0.7-0.3,0.7-0.7S51.8,41.3,51.5,41.3
			L51.5,41.3z"/>
		<path class="st0" d="M51.5,49.5h-5.9c-0.4,0-0.7,0.3-0.7,0.7s0.3,0.7,0.7,0.7h5.9c0.4,0,0.7-0.3,0.7-0.7
			C52.1,49.7,51.8,49.5,51.5,49.5L51.5,49.5z"/>
	</g>
</g>
<g id="Layer_1_1_">
</g>
</svg>
