<?xml version="1.0" encoding="utf-8"?>
<!-- Generator: Adobe Illustrator 16.0.0, SVG Export Plug-In . SVG Version: 6.00 Build 0)  -->
<!DOCTYPE svg PUBLIC "-//W3C//DTD SVG 1.1//EN" "http://www.w3.org/Graphics/SVG/1.1/DTD/svg11.dtd">
<svg version="1.1" xmlns="http://www.w3.org/2000/svg" xmlns:xlink="http://www.w3.org/1999/xlink" x="0px" y="0px" width="650px"
	 height="170px" viewBox="0 0 650 170" enable-background="new 0 0 650 170" xml:space="preserve">
<g id="Background_xA0_Image_1_">
</g>
<g id="Group_2_1_">
	<g id="Shippers">
	</g>
	<g>
		<g>
			<path fill="#0C397A" d="M256.434,104.596V14.688h9.143v89.907H256.434z M270.148,104.596V14.688h13.713v89.907H270.148z
				 M281.424,153.816c-4.571,0-8.281-1.524-11.123-4.571l2.133-3.505l0.152-0.458l0.457,0.152c0,0.101,0.05,0.306,0.152,0.61
				c0,0.202,0.1,0.457,0.305,0.762c0.1,0.202,0.305,0.404,0.609,0.609c2.134,1.829,4.773,2.743,7.924,2.743
				c2.031,0,3.758-0.56,5.182-1.677c1.421-1.219,2.133-2.643,2.133-4.267c0-1.119-0.255-2.083-0.762-2.896
				c-0.407-0.712-1.17-1.424-2.286-2.133c-1.118-0.712-2.845-1.576-5.181-2.591c-3.455-1.321-5.943-2.846-7.467-4.571
				c-1.424-1.729-2.133-3.657-2.133-5.791c0-2.643,0.964-4.776,2.895-6.4c1.929-1.626,4.52-2.438,7.771-2.438
				c1.929,0,3.758,0.404,5.486,1.219c1.623,0.812,3.098,1.879,4.418,3.2l-2.59,3.505l-0.305-0.305c0-0.103-0.053-0.255-0.152-0.457
				c0-0.305-0.103-0.56-0.305-0.763c-0.103-0.305-0.305-0.56-0.609-0.762c-0.814-0.814-1.779-1.424-2.896-1.828
				c-1.017-0.305-2.235-0.457-3.657-0.457c-1.828,0-3.252,0.507-4.267,1.523c-1.119,1.015-1.677,2.233-1.677,3.657
				c0,1.117,0.203,2.081,0.61,2.896c0.507,0.812,1.371,1.573,2.591,2.285c1.219,0.813,3.047,1.677,5.485,2.591
				c3.353,1.422,5.688,2.843,7.009,4.267c1.22,1.524,1.829,3.403,1.829,5.639c0,1.727-0.407,3.353-1.22,4.876
				c-0.914,1.524-2.235,2.793-3.961,3.81C286.147,153.307,283.962,153.816,281.424,153.816z M288.434,104.596V14.688h4.571v89.907
				H288.434z"/>
			<path fill="#0C397A" d="M306.717,104.596V14.688h9.143v89.907H306.717z M320.584,117.854h4.57v0.457
				c-0.204,0.202-0.356,0.457-0.457,0.762c0,0.202,0,0.659,0,1.371v12.496h13.715v-15.086h4.725v0.457
				c-0.205,0.202-0.357,0.457-0.457,0.762c0,0.202,0,0.659,0,1.371v32.764h-4.268v-16.763h-13.715v16.763h-4.113V117.854z
				 M329.574,104.596V14.688h4.572v89.907H329.574z M338.717,104.596V14.688h4.572v89.907H338.717z"/>
			<path fill="#0C397A" d="M357,104.596V14.688h9.143v89.907H357z M372.543,149.854h7.01v-28.648H373v-3.353h17.523v3.353h-7.01
				v28.648h7.314v3.353h-18.285V149.854z M379.857,104.596V14.688h4.572v89.907H379.857z M398.143,104.596V14.688h4.572v89.907
				H398.143z"/>
			<path fill="#0C397A" d="M407.283,104.596V14.688h13.715v89.907H407.283z M421.607,117.854h11.275
				c3.758,0,6.553,0.964,8.381,2.896c1.93,1.828,2.896,4.214,2.896,7.162c0,2.843-0.914,5.181-2.744,7.01
				c-1.828,1.828-4.57,2.742-8.229,2.742h-7.467v15.544h-4.113V117.854z M425.568,104.596V14.688h13.715v89.907H425.568z
				 M432.73,134.158c2.539,0,4.367-0.56,5.486-1.676c1.219-1.017,1.828-2.49,1.828-4.419c0-1.932-0.609-3.455-1.828-4.572
				c-1.219-1.219-2.998-1.828-5.334-1.828h-7.162v12.495H432.73z M443.855,104.596V14.688h9.143v89.907H443.855z"/>
			<path fill="#0C397A" d="M457.566,104.596V14.688h13.715v89.907H457.566z M471.891,117.854h11.275
				c3.758,0,6.553,0.964,8.381,2.896c1.93,1.828,2.896,4.214,2.896,7.162c0,2.843-0.914,5.181-2.744,7.01
				c-1.828,1.828-4.57,2.742-8.229,2.742h-7.467v15.544h-4.113V117.854z M475.852,104.596V14.688h13.715v89.907H475.852z
				 M483.014,134.158c2.539,0,4.367-0.56,5.486-1.676c1.219-1.017,1.828-2.49,1.828-4.419c0-1.932-0.609-3.455-1.828-4.572
				c-1.219-1.219-2.998-1.828-5.334-1.828h-7.162v12.495H483.014z M494.139,104.596V14.688h9.143v89.907H494.139z"/>
			<path fill="#0C397A" d="M507.85,104.596V14.688h4.572v89.907H507.85z M522.174,117.854h21.639v3.505H525.83v11.581h14.934v3.657
				H525.83v13.105h17.83v3.505h-21.486V117.854z M526.135,104.596V14.688h9.145v89.907H526.135z M539.85,104.596V14.688h4.572
				v89.907H539.85z"/>
			<path fill="#0C397A" d="M558.133,104.596V14.688h9.143v89.907H558.133z M572.305,117.854h10.361c4.063,0,7.01,0.914,8.838,2.742
				c1.93,1.727,2.896,4.215,2.896,7.468c0,2.03-0.662,3.962-1.982,5.79c-1.32,1.829-3.047,3.048-5.18,3.657l8.229,15.696h-4.42
				l-7.924-15.544h-6.857v15.544h-3.961V117.854z M583.123,134.158c2.439,0,4.268-0.56,5.486-1.676
				c1.117-1.017,1.676-2.49,1.676-4.419c0-1.932-0.559-3.505-1.676-4.725c-1.219-1.119-3.047-1.676-5.486-1.676h-6.857v12.495
				H583.123z M580.99,104.596V14.688h4.572v89.907H580.99z M590.133,104.596V14.688h13.715v89.907H590.133z"/>
			<path fill="#0C397A" d="M608.416,104.596V14.688h9.143v89.907H608.416z M622.131,104.596V14.688h13.715v89.907H622.131z
				 M633.406,153.816c-4.57,0-8.281-1.524-11.123-4.571l2.133-3.505l0.152-0.458l0.457,0.152c0,0.101,0.051,0.306,0.152,0.61
				c0,0.202,0.1,0.457,0.305,0.762c0.102,0.202,0.305,0.404,0.609,0.609c2.135,1.829,4.775,2.743,7.924,2.743
				c2.031,0,3.758-0.56,5.182-1.677c1.422-1.219,2.133-2.643,2.133-4.267c0-1.119-0.254-2.083-0.762-2.896
				c-0.406-0.712-1.168-1.424-2.285-2.133c-1.119-0.712-2.846-1.576-5.182-2.591c-3.455-1.321-5.941-2.846-7.467-4.571
				c-1.424-1.729-2.133-3.657-2.133-5.791c0-2.643,0.965-4.776,2.895-6.4c1.93-1.626,4.52-2.438,7.771-2.438
				c1.93,0,3.758,0.404,5.486,1.219c1.623,0.812,3.098,1.879,4.42,3.2l-2.592,3.505l-0.305-0.305c0-0.103-0.053-0.255-0.152-0.457
				c0-0.305-0.102-0.56-0.305-0.763c-0.102-0.305-0.305-0.56-0.609-0.762c-0.814-0.814-1.779-1.424-2.895-1.828
				c-1.018-0.305-2.236-0.457-3.658-0.457c-1.828,0-3.252,0.507-4.266,1.523c-1.119,1.015-1.676,2.233-1.676,3.657
				c0,1.117,0.201,2.081,0.609,2.896c0.506,0.812,1.371,1.573,2.59,2.285c1.219,0.813,3.047,1.677,5.486,2.591
				c3.352,1.422,5.688,2.843,7.008,4.267c1.221,1.524,1.83,3.403,1.83,5.639c0,1.727-0.408,3.353-1.219,4.876
				c-0.916,1.524-2.236,2.793-3.963,3.81C638.131,153.307,635.945,153.816,633.406,153.816z M640.416,104.596V14.688h4.572v89.907
				H640.416z"/>
		</g>
		<g id="Rectangle_1_copy_3_2_">
			<g>
				<path fill-rule="evenodd" clip-rule="evenodd" fill="#0C397A" d="M58.902,164.281h40.962l30.68-159.557H89.581L58.902,164.281z
					 M173.922,4.725l-30.68,159.557h40.979L214.9,4.725H173.922z"/>
			</g>
		</g>
		<g id="Rectangle_1_copy_4_2_">
			<g>
				<polygon fill="#FBD536" points="78.361,64.094 70.619,104.362 180.33,104.362 188.073,64.094 				"/>
			</g>
		</g>
		<g id="Rectangle_5_2_">
			<g>
				<polygon fill="#FBD536" points="173.689,5.763 143.019,165.275 239.849,85.52 				"/>
			</g>
		</g>
		<g id="Shape_6_copy_4_2_">
			<g>
				<path fill-rule="evenodd" clip-rule="evenodd" fill="#0C397A" d="M4.859,8.201l83.652,5.738l1.51-9.134L4.859,8.201z
					 M87.145,22.219l1.032-6.249l-56.476,2.671L87.145,22.219z M85.706,30.926l0.794-4.808l-42.649-1.212L85.706,30.926z"/>
			</g>
		</g>
	</g>
</g>
</svg>
