<?xml version="1.0" encoding="utf-8"?>
<!-- Generator: Adobe Illustrator 25.2.1, SVG Export Plug-In . SVG Version: 6.00 Build 0)  -->
<svg version="1.1" id="Layer_1" xmlns="http://www.w3.org/2000/svg" xmlns:xlink="http://www.w3.org/1999/xlink" x="0px" y="0px"
	 viewBox="0 0 70 70" style="enable-background:new 0 0 70 70;" xml:space="preserve">
<style type="text/css">
	.st0{fill:#040725;}
</style>
<g>
	<g>
		<path class="st0" d="M29,42.2H14.6c-0.7,0-1.2-0.5-1.2-1.2s0.5-1.2,1.2-1.2H29c0.7,0,1.2,0.5,1.2,1.2S29.7,42.2,29,42.2z"/>
	</g>
	<g>
		<path class="st0" d="M26.6,49.4h-12c-0.7,0-1.2-0.5-1.2-1.2s0.5-1.2,1.2-1.2h12c0.7,0,1.2,0.5,1.2,1.2S27.3,49.4,26.6,49.4z"/>
	</g>
	<g>
		<path class="st0" d="M26.6,23c-2.6,0-4.8-2.2-4.8-4.8s2.2-4.8,4.8-4.8s4.8,2.2,4.8,4.8S29.2,23,26.6,23z M26.6,15.8
			c-1.3,0-2.4,1.1-2.4,2.4c0,1.3,1.1,2.4,2.4,2.4s2.4-1.1,2.4-2.4C29,16.9,27.9,15.8,26.6,15.8z"/>
	</g>
	<g>
		<path class="st0" d="M35,35c-0.7,0-1.2-0.5-1.2-1.2v-2.4c0-2-1.6-3.6-3.6-3.6H23c-2,0-3.6,1.6-3.6,3.6v2.4c0,0.7-0.5,1.2-1.2,1.2
			S17,34.5,17,33.8v-2.4c0-3.3,2.7-6,6-6h7.2c3.3,0,6,2.7,6,6v2.4C36.2,34.5,35.7,35,35,35z"/>
	</g>
	<g>
		<path class="st0" d="M29,56.6H12.2c-3.3,0-6-2.7-6-6V12.2c0-3.3,2.7-6,6-6H41c3.3,0,6,2.7,6,6v14.6c0,0.7-0.5,1.2-1.2,1.2
			s-1.2-0.5-1.2-1.2V12.2c0-2-1.6-3.6-3.6-3.6H12.2c-2,0-3.6,1.6-3.6,3.6v38.4c0,2,1.6,3.6,3.6,3.6H29c0.7,0,1.2,0.5,1.2,1.2
			S29.7,56.6,29,56.6z"/>
	</g>
	<g>
		<path class="st0" d="M48.2,63.8c-8.6,0-15.6-7-15.6-15.6s7-15.6,15.6-15.6s15.6,7,15.6,15.6S56.8,63.8,48.2,63.8z M48.2,35
			C40.9,35,35,40.9,35,48.2s5.9,13.2,13.2,13.2s13.2-5.9,13.2-13.2S55.5,35,48.2,35z"/>
	</g>
	<g>
		<path class="st0" d="M45.8,54.2c-0.3,0-0.6-0.1-0.9-0.4L40.1,49c-0.5-0.5-0.5-1.2,0-1.7s1.2-0.5,1.7,0l3.9,3.9l7.6-8.6
			c0.4-0.5,1.2-0.6,1.7-0.1c0.5,0.4,0.5,1.2,0.1,1.7l-8.4,9.6C46.5,54.1,46.2,54.2,45.8,54.2L45.8,54.2z"/>
	</g>
</g>
</svg>
