<?xml version="1.0" encoding="utf-8"?>
<!-- Generator: Adobe Illustrator 25.2.1, SVG Export Plug-In . SVG Version: 6.00 Build 0)  -->
<svg version="1.1" id="Layer_1" xmlns="http://www.w3.org/2000/svg" xmlns:xlink="http://www.w3.org/1999/xlink" x="0px" y="0px"
	 viewBox="0 0 16 16" style="enable-background:new 0 0 16 16;" xml:space="preserve">
<g>
	<g>
		<path d="M4.5,6H6v4.9H4.5V6z M5.2,3.5c0.5,0,0.9,0.4,0.9,0.9c0,0.5-0.4,0.9-0.9,0.9c-0.5,0-0.9-0.4-0.9-0.9
			C4.3,3.9,4.7,3.5,5.2,3.5 M6.9,10.8h1.5V8.4c0-0.6,0.1-1.3,0.9-1.3c0.8,0,0.8,0.7,0.8,1.3v2.4h1.5V8.2c0-1.3-0.3-2.3-1.8-2.3
			c-0.7,0-1.2,0.4-1.4,0.8h0V6H6.9V10.8z"/>
	</g>
	<path d="M8,0.1C3.6,0.1,0.1,3.6,0.1,8c0,4.4,3.6,7.9,7.9,7.9s7.9-3.6,7.9-7.9C15.9,3.6,12.4,0.1,8,0.1z M8,14.9
		c-3.8,0-6.9-3.1-6.9-6.9c0-3.8,3.1-6.9,6.9-6.9c3.8,0,6.9,3.1,6.9,6.9C14.9,11.8,11.8,14.9,8,14.9z"/>
</g>
</svg>
