<?xml version="1.0" encoding="utf-8"?>
<!-- Generator: Adobe Illustrator 25.2.1, SVG Export Plug-In . SVG Version: 6.00 Build 0)  -->
<svg version="1.1" id="Layer_1" xmlns="http://www.w3.org/2000/svg" xmlns:xlink="http://www.w3.org/1999/xlink" x="0px" y="0px"
	 viewBox="0 0 512 512" style="enable-background:new 0 0 512 512;" xml:space="preserve">
<g>
	<path d="M130,231.1l-46.7,56.7C44,335.5,51.1,408.9,98.8,448.3s121.2,32.2,160.5-15.5l0,0l61.4-74.6
		c39.3-47.7,32.2-121.2-15.5-160.5c-9.2-10.1-20.9-17.2-35-21.3L250.9,203c-2.7,0.3-2.5,3-4.9,6c41.9,6.9,67.8,48.4,60.6,87.5
		c-1.4,13.9-8.5,25.5-15.9,34.5l-61.4,74.6c-27,32.8-73.3,37.3-106.1,10.2c-32.8-27-37.3-73.3-10.2-106.1l27-32.8
		C133.2,263.7,128.9,247.7,130,231.1L130,231.1z"/>
	<path d="M193.9,153.5c-39.3,47.7-32.2,121.2,15.5,160.5c8.9,7.4,20.6,14.5,32,18.9l27-32.8c-41.9-6.9-70.3-45.4-63.3-87.2
		c4.1-14.1,8.5-25.5,15.9-34.5l61.4-74.6c27-32.8,73.3-37.3,106.1-10.2s37.3,73.3,10.2,106.1l0,0l-27,32.8
		c7,15.8,8.6,32.1,10.2,48.4l46.7-56.7c39.3-47.7,32.2-121.2-15.5-160.5S292,31.5,252.7,79.2L193.9,153.5z"/>
</g>
</svg>
