<?xml version="1.0" encoding="utf-8"?>
<!-- Generator: Adobe Illustrator 22.0.1, SVG Export Plug-In . SVG Version: 6.00 Build 0)  -->
<svg version="1.1" id="Layer_1" xmlns="http://www.w3.org/2000/svg" xmlns:xlink="http://www.w3.org/1999/xlink" x="0px" y="0px"
	 viewBox="0 0 24 24" style="enable-background:new 0 0 24 24;" xml:space="preserve">
<g>
	<path d="M17.2,18.4H7.4c-0.4,0-0.7,0.3-0.7,0.7c0,0.4,0.3,0.7,0.7,0.7h9.8c0.4,0,0.7-0.3,0.7-0.7C17.9,18.7,17.6,18.4,17.2,18.4z"
		/>
	<path d="M17.2,15.2H7.4c-0.4,0-0.7,0.3-0.7,0.7c0,0.4,0.3,0.7,0.7,0.7h9.8c0.4,0,0.7-0.3,0.7-0.7C17.9,15.5,17.6,15.2,17.2,15.2z"
		/>
	<path d="M17.2,12.1H7.4c-0.4,0-0.7,0.3-0.7,0.7c0,0.4,0.3,0.7,0.7,0.7h9.8c0.4,0,0.7-0.3,0.7-0.7C17.9,12.4,17.6,12.1,17.2,12.1z"
		/>
	<path d="M17.2,8.9H7.4C7,8.9,6.7,9.2,6.7,9.6c0,0.4,0.3,0.7,0.7,0.7h9.8c0.4,0,0.7-0.3,0.7-0.7C17.9,9.2,17.6,8.9,17.2,8.9z"/>
	<path d="M21.2,2.4h-2.5c-0.3-1.3-1.4-2.2-2.7-2.2s-2.5,1-2.7,2.2h-1.5C11.5,1.1,10.4,0.1,9,0.1s-2.5,1-2.7,2.2H2.8
		C2.4,2.4,2.1,2.7,2.1,3v20.1c0,0.4,0.3,0.7,0.7,0.7h18.4c0.4,0,0.7-0.3,0.7-0.7V3C21.9,2.7,21.6,2.4,21.2,2.4z M16,1.5
		c0.6,0,1.1,0.3,1.3,0.8h-2.6C14.9,1.9,15.4,1.5,16,1.5z M9,1.5c0.6,0,1.1,0.3,1.3,0.8H7.7C8,1.9,8.4,1.5,9,1.5z M20.5,22.5h-17V3.7
		h2.8c0.4,1.2,1.5,2,2.7,2c0.4,0,0.7-0.3,0.7-0.7S9.4,4.3,9,4.3c-0.5,0-0.9-0.2-1.1-0.6h5.4c0.4,1.1,1.4,1.9,2.7,1.9
		c0.4,0,0.7-0.3,0.7-0.7S16.4,4.3,16,4.3c-0.5,0-0.9-0.2-1.1-0.6h5.6V22.5z"/>
</g>
</svg>
