<?xml version="1.0" encoding="utf-8"?>
<!-- Generator: Adobe Illustrator 22.0.1, SVG Export Plug-In . SVG Version: 6.00 Build 0)  -->
<svg version="1.1" id="Layer_1" xmlns="http://www.w3.org/2000/svg" xmlns:xlink="http://www.w3.org/1999/xlink" x="0px" y="0px"
	 viewBox="0 0 512 512" style="enable-background:new 0 0 512 512;" xml:space="preserve">
<path d="M368.9,368.9H143.1v-28.2h225.7V368.9z M368.9,397.1H143.1v28.2h225.7V397.1z M255.1,235.9c-13.4,0.9-26.6-3.7-36.5-12.7
	l-19.1,19.1c12.2,12.1,28.5,19,45.6,19.4v22.5h21.9v-22.9c24.1-1.1,43.2-20.7,43.6-44.9c0.8-11.8-3.5-23.4-11.7-32
	c-8.1-6.8-18.3-10.9-28.9-11.7l-17.8-2.5c-5.2-0.5-10-2.6-14-6c-2.9-2.8-4.5-6.7-4.5-10.8c0-10.4,7.6-19.1,23.3-19.1
	c11.3-0.9,22.5,2.9,31,10.4l18.7-18.4c-10.7-10.3-24.9-16.4-39.7-17V86.7h-21.9v23.1c-22.9,2.3-40.1,21.7-39.7,44.7
	c-0.6,11,3.3,21.7,10.8,29.7c8.2,7.2,18.4,11.6,29.3,12.5l18.2,2.5c4.9,0.2,9.6,2.1,13.4,5.3c3.3,3.4,5,8,4.7,12.7
	C281.9,229.4,272.5,235.9,255.1,235.9z M425.3,30.3H86.7v451.5h338.6V30.3 M453.5,2.1V510h-395V2.1H453.5z"/>
</svg>
