<?xml version="1.0" encoding="utf-8"?>
<!-- Generator: Adobe Illustrator 22.0.1, SVG Export Plug-In . SVG Version: 6.00 Build 0)  -->
<svg version="1.1" id="Layer_1" xmlns="http://www.w3.org/2000/svg" xmlns:xlink="http://www.w3.org/1999/xlink" x="0px" y="0px"
	 viewBox="0 0 24 24" style="enable-background:new 0 0 24 24;" xml:space="preserve">
<style type="text/css">
	.st0{fill:#FFFFFF;stroke:#FFFFFF;stroke-width:0.25;stroke-miterlimit:10;}
</style>
<path class="st0" d="M17.1,17.1H6.9v-1.3h10.3L17.1,17.1L17.1,17.1z M17.1,19.4H6.9v1.3h10.3L17.1,19.4L17.1,19.4z M12,11.1
	c-0.6,0-1.2-0.2-1.7-0.6l-0.9,0.9c0.6,0.6,1.3,0.9,2.1,0.9v1h1v-1c1.1-0.1,2-0.9,2-2c0-0.5-0.2-1.1-0.5-1.5
	c-0.4-0.3-0.8-0.5-1.3-0.5l-0.8-0.1c-0.2,0-0.5-0.1-0.6-0.3C11.1,7.7,11,7.5,11,7.3c0-0.5,0.3-0.9,1.1-0.9c0.5,0,1,0.1,1.4,0.5
	l0.9-0.8c-0.5-0.5-1.1-0.7-1.8-0.8v-1h-1v1.1c-1,0.1-1.8,1-1.8,2c0,0.5,0.2,1,0.5,1.4c0.4,0.3,0.8,0.5,1.3,0.6l0.8,0.1
	c0.2,0,0.4,0.1,0.6,0.2c0.2,0.2,0.2,0.4,0.2,0.6C13.2,10.8,12.8,11.1,12,11.1z M19.7,1.7H4.3v20.6h15.4V1.7 M21,0.4v23.1H3V0.4H21z"
	/>
</svg>
