<?xml version="1.0" encoding="utf-8"?>
<!-- Generator: Adobe Illustrator 25.2.1, SVG Export Plug-In . SVG Version: 6.00 Build 0)  -->
<svg version="1.1" id="Layer_1" xmlns="http://www.w3.org/2000/svg" xmlns:xlink="http://www.w3.org/1999/xlink" x="0px" y="0px"
	 viewBox="0 0 70 70" style="enable-background:new 0 0 70 70;" xml:space="preserve">
<style type="text/css">
	.st0{fill:#040725;}
</style>
<g>
	<path class="st0" d="M54.3,11.9h-4.7V9.3c0-1.1-1.7-1.1-1.7,0v2.6h-7.5V9.3c0-1.1-1.7-1.1-1.7,0v2.6h-7.5V9.3c0-1.1-1.7-1.1-1.7,0
		v2.6H22V9.3c0-1.1-1.7-1.1-1.7,0v2.6h-4.7c-1.7,0-3.2,1.4-3.2,3.2v43.4c0,1.7,1.4,3.2,3.2,3.2h38.6c1.7,0,3.2-1.4,3.2-3.2V15
		C57.5,13.3,56,11.9,54.3,11.9z M55.7,58.4c0,0.8-0.6,1.4-1.4,1.4H15.7c-0.8,0-1.4-0.6-1.4-1.4V20.7h41.5L55.7,58.4L55.7,58.4z
		 M55.7,18.9H14.3V15c0-0.8,0.6-1.4,1.4-1.4h4.7v1.7c-0.2,0-0.3,0-0.3,0c-1.1,0-1.1,1.7,0,1.7h2.3c1.1,0,1.1-1.7,0-1.7
		c0,0-0.1,0-0.3,0v-1.7h7.5v1.7c-0.2,0-0.3,0-0.3,0c-1.1,0-1.1,1.7,0,1.7h2.3c1.1,0,1.1-1.7,0-1.7c0,0-0.1,0-0.3,0v-1.7h7.5v1.7
		c-0.2,0-0.3,0-0.3,0c-1.1,0-1.1,1.7,0,1.7h2.3c1.1,0,1.1-1.7,0-1.7c0,0-0.1,0-0.3,0v-1.7H48v1.7c-0.2,0-0.3,0-0.3,0
		c-1.1,0-1.1,1.7,0,1.7H50c1.1,0,1.1-1.7,0-1.7c0,0-0.1,0-0.3,0v-1.7h4.7c0.8,0,1.4,0.6,1.4,1.4v3.9H55.7z"/>
	<path class="st0" d="M26.1,38.1v2.5c0,1.2-0.5,2.3-1.3,3.2c-2,2-0.5,5.6,2.3,5.6h2.6c0.4,2.6,2.7,4.6,5.4,4.6s4.9-2,5.4-4.6h2.6
		c2.8,0,4.3-3.7,2.2-5.6c-0.9-0.8-1.4-2-1.4-3.3v-2.4c0-3.9-2.6-7.3-6.2-8.4c0.4-0.5,0.6-1.1,0.6-1.8c0-1.7-1.4-3.2-3.2-3.2
		c-1.7,0-3.2,1.4-3.2,3.2c0,0.7,0.2,1.3,0.6,1.8C28.8,30.7,26.1,34.1,26.1,38.1L26.1,38.1z M35,52.2c-1.8,0-3.2-1.2-3.6-2.9h7.2
		C38.2,51,36.8,52.2,35,52.2z M35,26.4c0.8,0,1.4,0.6,1.4,1.4s-0.6,1.4-1.4,1.4s-1.4-0.6-1.4-1.4S34.2,26.4,35,26.4z M34.9,31
		c3.9,0,7.1,3.2,7.1,7.1v2.4c0,1.7,0.7,3.4,2,4.5c1,0.9,0.3,2.7-1.1,2.7H27.1c-1.4,0-2-1.8-1.1-2.7c1.2-1.2,1.8-2.7,1.8-4.4v-2.5
		C27.8,34.2,31,31,34.9,31L34.9,31z"/>
	<path class="st0" d="M25.3,33.9c0.7-1.7,1.9-3.1,3.4-4.2c0.9-0.7-0.1-2-1-1.4c-1.7,1.3-3.1,3-3.9,4.9
		C23.3,34.2,24.8,34.9,25.3,33.9L25.3,33.9z"/>
	<path class="st0" d="M44.7,33.9c0.4,1,2,0.4,1.6-0.7c-0.8-2-2.2-3.7-3.9-4.9c-0.9-0.7-1.9,0.7-1,1.4C42.8,30.8,44,32.2,44.7,33.9
		L44.7,33.9z"/>
</g>
</svg>
