<?xml version="1.0" encoding="utf-8"?>
<!-- Generator: Adobe Illustrator 22.0.1, SVG Export Plug-In . SVG Version: 6.00 Build 0)  -->
<svg version="1.1" id="Layer_1" xmlns="http://www.w3.org/2000/svg" xmlns:xlink="http://www.w3.org/1999/xlink" x="0px" y="0px"
	 viewBox="0 0 500 500" style="enable-background:new 0 0 500 500;" xml:space="preserve">
<style type="text/css">
	.st0{stroke:#000000;stroke-width:7.2914;stroke-miterlimit:10;}
</style>
<g>
	<path class="st0" d="M86,386.7h186.8c12,0,24.1-12,24.1-24.1v-30.1c0-6.1-6.1-12-12-18.1l0,0c-24.1-18.1-66.2-36.1-108.4-36.1
		s-78.4,12-108.4,36.1c-6.1,6.1-12,12-12,18.1v30.1C62.1,374.7,74,386.7,86,386.7z M80.1,332.5C80.1,332.5,80.1,326.4,80.1,332.5
		c24.1-24.1,60.3-36.1,96.4-36.1s72.3,12,96.5,30.1v6.1v30.1c0,6.1-6.1,6.1-6.1,6.1H86.2c-6.1,0-6.1-6.1-6.1-6.1L80.1,332.5z"/>
	<path class="st0" d="M176.4,256.6c36.1,0,66.2-30.1,66.2-66.2s-30.1-66.2-66.2-66.2s-66.2,30.1-66.2,66.2
		C110.2,226.5,140.2,256.6,176.4,256.6z M176.4,142.2c24.1,0,48.2,24.1,48.2,48.2c0,24.1-24.1,48.2-48.2,48.2
		c-24.1,0-48.2-24.1-48.2-48.2C128.3,166.2,152.4,142.2,176.4,142.2z"/>
</g>
<g>
	<path d="M355.8,122.8c0-11.8,5.9-17.6,17.6-17.6s17.6,5.9,17.6,17.6v35.3h35.3c11.8,0,17.6,5.9,17.6,17.6s-5.9,17.6-17.6,17.6
		h-35.3v35.3c0,11.8-5.9,17.6-17.6,17.6c-5.9,0-17.6-5.9-17.6-17.6v-35.3h-41.2c-5.9,0-17.6-5.9-17.6-17.6s5.9-17.6,17.6-17.6h41.2
		V122.8z"/>
</g>
<path d="M449.7,26H50.3C22.7,26,0.4,48.3,0.4,75.9v348.2c0,27.6,22.3,49.9,49.9,49.9h399.3c27.6,0,49.9-22.3,49.9-49.9V75.9
	C499.6,48.3,477.3,26,449.7,26z M50.3,59.2h399.3c9.2,0,16.7,7.4,16.7,16.7v33.2H33.7V75.9C33.7,66.7,41.2,59.2,50.3,59.2z
	 M466.3,242.2H33.7v-133h432.6L466.3,242.2L466.3,242.2z M449.7,440.7H50.3c-9.2,0-16.7-7.4-16.7-16.7V242.2h432.6V424
	C466.3,433.2,458.8,440.7,449.7,440.7z"/>
</svg>
