<svg id="Bahan_copy" viewBox="0 0 64 64" xmlns="http://www.w3.org/2000/svg" data-name="Bahan copy"><g fill="rgb(0,0,0)"><path d="m38.61133 24.90527a2.65954 2.65954 0 0 0 -2.03418.77491l-6.44043 6.44091-2.57129-2.5708a2.97226 2.97226 0 0 0 -5.06055 2.17634 3.00583 3.00583 0 0 0 .8916 1.9931l4.3584 4.35888a3.24891 3.24891 0 0 0 4.56934.14011l8.39551-8.39548c1.77256-1.6929.26259-4.90377-2.1084-4.91797zm.69433 3.50391-8.3955 8.39551a1.02583 1.02583 0 0 1 -.79688.2915 1.43212 1.43212 0 0 1 -.94433-.43164l-4.3584-4.35937a1.01124 1.01124 0 0 1 -.30762-.667c-.04594-.2765.20479-.58.45024-.79a.86066.86066 0 0 1 1.19819.11618l3.27833 3.27784a.99964.99964 0 0 0 1.41406 0l7.14746-7.14746c.77089-.67437 1.98464.54645 1.31445 1.31444z"/><path d="m56.97754 26.34717-5.04-.35791a1.22058 1.22058 0 0 1 -1.07129-.794c-.22117-1.00777-1.33419-2.07-.5147-3.04589l3.30767-3.814a3.26416 3.26416 0 0 0 -.1582-4.43213l-3.4043-3.40478a3.26629 3.26629 0 0 0 -4.43262-.15723l-3.81347 3.3081c-.97633.81361-2.04165-.28918-3.04592-.51553a1.2246 1.2246 0 0 1 -.7949-1.07236l-.35747-5.03844a3.26428 3.26428 0 0 0 -3.24511-3.023h-4.81446a3.26428 3.26428 0 0 0 -3.24511 3.023l-.35743 5.038c-.10939 1.26447-1.66847 1.24643-2.52534 1.78669a1.221 1.221 0 0 1 -1.31548-.19832l-3.81347-3.30859a3.26732 3.26732 0 0 0 -4.43262.15772l-3.40432 3.40433a3.26481 3.26481 0 0 0 -.1582 4.43262l3.30859 3.81445c.81443.97462-.2894 2.04014-.51553 3.04543a1.221 1.221 0 0 1 -1.07236.79393l-5.03906.35791a3.265 3.265 0 0 0 -3.02244 3.24512v4.81542a3.265 3.265 0 0 0 3.02246 3.24512l5.04.35791a1.22058 1.22058 0 0 1 1.07129.794c.22117 1.00777 1.33419 2.07.5147 3.04589l-3.30767 3.814a3.26417 3.26417 0 0 0 .1582 4.43213l3.4043 3.40478a3.26734 3.26734 0 0 0 4.43262.15723l3.81347-3.3081a1.21839 1.21839 0 0 1 1.31543-.19825c.85427.545 2.41745.51914 2.52543 1.78609l.35739 5.03862a3.26428 3.26428 0 0 0 3.24515 3.02287h4.81446a3.26428 3.26428 0 0 0 3.24511-3.023l.35743-5.03809a1.22446 1.22446 0 0 1 .79492-1.07275c1.00532-.22064 2.07045-1.3337 3.04589-.51568l3.81348 3.30865a3.26516 3.26516 0 0 0 4.43262-.15772l3.4043-3.40429a3.2648 3.2648 0 0 0 .1582-4.43262l-3.30859-3.8144c-.81443-.97462.2894-2.04014.51553-3.04543a1.221 1.221 0 0 1 1.07236-.79393l5.03906-.35791a3.26494 3.26494 0 0 0 3.02246-3.24512v-4.81542a3.26494 3.26494 0 0 0 -3.02246-3.24512zm1.02246 8.06054a1.25794 1.25794 0 0 1 -1.165 1.25l-5.03808.35792a3.22286 3.22286 0 0 0 -2.81348 2.11328c-.72012 1.64782-1.57653 3.47541-.14338 5.03223l3.30744 3.814a1.257 1.257 0 0 1 -.06055 1.70752l-3.40433 3.40474a1.25922 1.25922 0 0 1 -1.708.06055l-3.81348-3.30811c-1.563-1.43921-3.37985-.57218-5.03221.14374a3.22333 3.22333 0 0 0 -2.11329 2.8133l-.35743 5.03857a1.25914 1.25914 0 0 1 -1.25098 1.16455h-4.81446a1.25914 1.25914 0 0 1 -1.251-1.16455l-.35742-5.03906a3.22372 3.22372 0 0 0 -2.11329-2.813c-.97735-.29817-1.86358-.96208-2.90429-.94093a3.24945 3.24945 0 0 0 -2.12793.79737l-3.81348 3.30762a1.25962 1.25962 0 0 1 -1.708-.06006l-3.40429-3.40527a1.25634 1.25634 0 0 1 -.06055-1.707l3.30664-3.81348c1.44058-1.56494.57277-3.37933-.14276-5.0327a3.22221 3.22221 0 0 0 -2.81232-2.11329l-5.03908-.35794a1.25794 1.25794 0 0 1 -1.165-1.25v-4.81542a1.25794 1.25794 0 0 1 1.165-1.25l5.03809-.35791a3.22287 3.22287 0 0 0 2.81347-2.11329c.19043-.53222.40625-1.05566.6416-1.55664a3.22378 3.22378 0 0 0 -.498-3.47558l-3.30762-3.814a1.257 1.257 0 0 1 .06055-1.70752l3.40429-3.40478a1.25813 1.25813 0 0 1 1.708-.06055l3.81348 3.30811c1.56291 1.43932 3.38.57208 5.03221-.14374a3.22334 3.22334 0 0 0 2.1133-2.81329l.35742-5.03858a1.25914 1.25914 0 0 1 1.25098-1.16452h4.81446a1.25914 1.25914 0 0 1 1.251 1.16455l.35743 5.03906a3.22369 3.22369 0 0 0 2.11328 2.813c1.64762.72065 3.47622 1.57717 5.03223.14338l3.81347-3.30744a1.25767 1.25767 0 0 1 1.708.06006l3.40429 3.40527a1.25634 1.25634 0 0 1 .06055 1.707l-3.30664 3.81348c-1.44067 1.56524-.57273 3.37914.14276 5.0327a3.22224 3.22224 0 0 0 2.81232 2.1133l5.03906.35791a1.25794 1.25794 0 0 1 1.165 1.25z"/><path d="m32 17.48047a14.53628 14.53628 0 0 0 -14.51953 14.51953c.7979 19.26208 28.24409 19.25647 29.03909-.00011a14.5363 14.5363 0 0 0 -14.51956-14.51942zm0 27.03906a12.53367 12.53367 0 0 1 -12.51953-12.51953c.68766-16.60887 24.35393-16.604 25.03908.00009a12.53368 12.53368 0 0 1 -12.51955 12.51944z"/></g></svg>