<?xml version="1.0" encoding="utf-8"?>
<!-- Generator: Adobe Illustrator 25.2.1, SVG Export Plug-In . SVG Version: 6.00 Build 0)  -->
<svg version="1.1" id="Layer_1" xmlns="http://www.w3.org/2000/svg" xmlns:xlink="http://www.w3.org/1999/xlink" x="0px" y="0px"
	 viewBox="0 0 512 512" style="enable-background:new 0 0 512 512;" xml:space="preserve">
<style type="text/css">
	.st0{fill:#FFFFFF;}
	.st1{fill:#EBB30A;}
</style>
<path class="st0" d="M228.4,142.5H72.1c-4.1,0-7.4,3.3-7.4,7.4c0,4.1,3.3,7.4,7.4,7.4h156.3c4.1,0,7.4-3.3,7.4-7.4
	C235.9,145.8,232.5,142.5,228.4,142.5z"/>
<path class="st0" d="M228.4,172.2H72.1c-4.1,0-7.4,3.3-7.4,7.4c0,4.1,3.3,7.4,7.4,7.4h156.3c4.1,0,7.4-3.3,7.4-7.4
	C235.9,175.6,232.5,172.2,228.4,172.2z"/>
<path class="st0" d="M228.4,202H72.1c-4.1,0-7.4,3.3-7.4,7.4c0,4.1,3.3,7.4,7.4,7.4h156.3c4.1,0,7.4-3.3,7.4-7.4
	C235.9,205.3,232.5,202,228.4,202z"/>
<path class="st0" d="M235.9,421.6c0-4.1-3.3-7.4-7.4-7.4H72.1c-4.1,0-7.4,3.3-7.4,7.4c0,4.1,3.3,7.4,7.4,7.4h156.3
	C232.5,429,235.9,425.7,235.9,421.6z"/>
<path class="st0" d="M72.1,443.9c-4.1,0-7.4,3.3-7.4,7.4c0,4.1,3.3,7.4,7.4,7.4h107.9c4.1,0,7.4-3.3,7.4-7.4c0-4.1-3.3-7.4-7.4-7.4
	H72.1z"/>
<path class="st0" d="M180.1,309.9c4.1,0,7.4-3.3,7.4-7.4s-3.3-7.4-7.4-7.4H72.1c-4.1,0-7.4,3.3-7.4,7.4s3.3,7.4,7.4,7.4H180.1z"/>
<path class="st0" d="M64.7,369.5c0,3.9,1.6,7.7,4.4,10.5s6.6,4.4,10.5,4.4h29.8c3.9,0,7.7-1.6,10.5-4.4s4.4-6.6,4.4-10.5v-29.8
	c0-3.9-1.6-7.7-4.4-10.5c-2.8-2.8-6.6-4.4-10.5-4.4H79.6c-3.9,0-7.7,1.6-10.5,4.4c-2.8,2.8-4.4,6.6-4.4,10.5V369.5z M79.6,339.7
	h29.8v29.8H79.6V339.7z"/>
<path class="st0" d="M223.8,275.5l10.3-10.3H72.1c-4.1,0-7.4,3.3-7.4,7.4s3.3,7.4,7.4,7.4h148.1
	C221.2,278.5,222.4,276.9,223.8,275.5L223.8,275.5z"/>
<path class="st0" d="M361.6,137.8c-1-3-2.9-5.5-5.4-7.4c-2.5-1.8-5.6-2.8-8.7-2.8h-74.4c-3.9,0-7.7,1.6-10.5,4.4s-4.4,6.6-4.4,10.5
	v74.4c0,3.1,1,6.2,2.8,8.7c1.8,2.5,4.4,4.4,7.4,5.4l14.1-14.1h-9.4v-74.4h74.4v9.4L361.6,137.8z"/>
<path class="st0" d="M295,353.4l-7.1,2.4v13.7c0,3.9,1.6,7.7,4.4,10.5s6.6,4.4,10.5,4.4h29.8c3.9,0,7.7-1.6,10.5-4.4
	s4.4-6.6,4.4-10.5v-29.8c0-3.9-1.6-7.7-4.4-10.5s-6.6-4.4-10.5-4.4H327l-14.9,14.9h20.5v29.8h-29.8v-20.6
	C300.6,350.9,297.9,352.4,295,353.4L295,353.4z"/>
<path class="st0" d="M202.1,339.7l4.4-14.9h-15.3c-3.9,0-7.7,1.6-10.5,4.4c-2.8,2.8-4.4,6.6-4.4,10.5v29.8c0,3.9,1.6,7.7,4.4,10.5
	s6.6,4.4,10.5,4.4H221c3.3,0,6.4-1.1,9-3.1c2.6-2,4.4-4.8,5.3-7.9l-7.2,2.4h0c-3.9,1.3-8,1.5-12,0.6c-4-0.9-7.6-2.9-10.6-5.7
	c-0.4-0.4-0.7-0.8-1.1-1.2h-13.2v-29.8L202.1,339.7z"/>
<path class="st0" d="M407.1,92.3V49.4c0-7.9-3.1-15.5-8.7-21c-5.6-5.6-13.1-8.7-21-8.7H49.8c-7.9,0-15.5,3.1-21,8.7
	C23.2,34,20,41.5,20,49.4v416.8c0,7.9,3.1,15.5,8.7,21c5.6,5.6,13.1,8.7,21,8.7h327.5c7.9,0,15.5-3.1,21-8.7
	c5.6-5.6,8.7-13.1,8.7-21V244.7l-14.9,14.9v206.6c0,3.9-1.6,7.7-4.4,10.5c-2.8,2.8-6.6,4.4-10.5,4.4H49.8c-3.9,0-7.7-1.6-10.5-4.4
	c-2.8-2.8-4.4-6.6-4.4-10.5V86.6h357.3v20.5L407.1,92.3z M34.9,71.7V49.4c0-3.9,1.6-7.7,4.4-10.5c2.8-2.8,6.6-4.4,10.5-4.4h327.5
	c3.9,0,7.7,1.6,10.5,4.4c2.8,2.8,4.4,6.6,4.4,10.5v22.3H34.9z"/>
<path class="st1" d="M449.5,81.4c-1.4-1.4-3.3-2.2-5.3-2.2c-2,0-3.9,0.8-5.3,2.2L234.3,286c-0.9,0.9-1.5,2-1.9,3.2l-18.6,63.3
	c-0.8,2.7,0,5.5,2,7.5c2,1.9,4.9,2.6,7.5,1.7l67-22.3c1.1-0.4,2.1-1,2.9-1.8l201-201c1.4-1.4,2.2-3.3,2.2-5.3s-0.8-3.9-2.2-5.3
	L449.5,81.4z M232.2,343l14.1-47.8l0.8-0.8l32.7,32.7L232.2,343z M291.7,318l-34.1-34.1l160.7-160.7l34.1,34.1L291.7,318z
	 M462.9,146.8l-34.1-34.1l15.5-15.5l34.1,34.1L462.9,146.8z"/>
</svg>
