<?xml version="1.0" encoding="utf-8"?>
<!-- Generator: Adobe Illustrator 25.2.1, SVG Export Plug-In . SVG Version: 6.00 Build 0)  -->
<svg version="1.1" id="Layer_1" xmlns="http://www.w3.org/2000/svg" xmlns:xlink="http://www.w3.org/1999/xlink" x="0px" y="0px"
	 viewBox="0 0 880 512" style="enable-background:new 0 0 880 512;" xml:space="preserve">
<style type="text/css">
	.st0{fill-rule:evenodd;clip-rule:evenodd;fill:#3A5E59;}
</style>
<path class="st0" d="M271.4,401l98.1,98.1c9.6,9.6,25.1,9.6,34.7,0l98.1-98.1c9.6-9.6,9.6-25.1,0-34.7s-25.1-9.6-34.7,0l-56.3,56.2
	V30.2c0-13.5-11-24.5-24.5-24.5c-13.5,0-24.5,11-24.5,24.5v392.3l-56.3-56.2c-9.6-9.6-25.1-9.6-34.7,0S261.8,391.4,271.4,401
	L271.4,401z M142.5,12.9c-9.6-9.6-25.1-9.6-34.7,0L9.7,111c-9.6,9.6-9.6,25.1,0,34.7s25.1,9.6,34.7,0l56.2-56.2v392.3
	c0,13.5,11,24.5,24.5,24.5s24.5-11,24.5-24.5V89.5l56.3,56.2c9.6,9.6,25.1,9.6,34.7,0s9.6-25.1,0-34.7L142.5,12.9z"/>
</svg>
