<?xml version="1.0" encoding="utf-8"?>
<!-- Generator: Adobe Illustrator 22.0.1, SVG Export Plug-In . SVG Version: 6.00 Build 0)  -->
<svg version="1.1" id="Capa_1" xmlns="http://www.w3.org/2000/svg" xmlns:xlink="http://www.w3.org/1999/xlink" x="0px" y="0px"
	 viewBox="0 0 34.3 30" style="enable-background:new 0 0 34.3 30;" xml:space="preserve">
<style type="text/css">
	.st0{fill:#D4D4D4;}
</style>
<g>
	<path class="st0" d="M24.9,19.5l-6,7.8c-0.1,0.1-0.2,0.1-0.3,0.1s-0.2-0.1-0.3-0.1l-6-7.8c-0.1-0.1-0.1-0.1-0.1-0.2s0-0.2,0.1-0.2
		c0.1-0.1,0.3-0.2,0.3-0.1l4,1.6V3.8c0-0.2,0.2-0.3,0.3-0.3h3.2c0.2,0,0.3,0.2,0.3,0.3v16.7l4-1.6c0.2-0.1,0.3,0,0.3,0.1
		C25,19.1,25,19.3,24.9,19.5z M12.7,10.9c0.1-0.1,0.1-0.1,0.1-0.2s0-0.2-0.1-0.2l-6-7.8c0-0.2-0.2-0.2-0.3-0.2S6.2,2.7,6.1,2.7
		l-6,7.8c-0.1,0.1-0.1,0.3,0,0.4C0.2,11,0.3,11.1,0.4,11l4-1.6v16.7c0,0.2,0.2,0.3,0.3,0.3h3.2c0.2,0,0.3-0.2,0.3-0.3V9.5l4,1.6
		C12.5,11.1,12.6,11,12.7,10.9z"/>
</g>
</svg>
