<?xml version="1.0" encoding="utf-8"?>
<!-- Generator: Adobe Illustrator 25.2.1, SVG Export Plug-In . SVG Version: 6.00 Build 0)  -->
<svg version="1.1" id="Layer_1" xmlns="http://www.w3.org/2000/svg" xmlns:xlink="http://www.w3.org/1999/xlink" x="0px" y="0px"
	 viewBox="0 0 70 70" style="enable-background:new 0 0 70 70;" xml:space="preserve">
<style type="text/css">
	.st0{fill:#040725;stroke:#040725;stroke-width:0.5;stroke-miterlimit:10;}
</style>
<g id="Layer_1_1_">
</g>
<path class="st0" d="M26.1,32.9c2.5,0,4.5-2,4.5-4.5s-2-4.5-4.5-4.5s-4.5,2-4.5,4.5S23.6,32.9,26.1,32.9z M26.1,25.5
	c1.6,0,2.9,1.3,2.9,2.9s-1.3,2.9-2.9,2.9s-2.9-1.3-2.9-2.9S24.5,25.5,26.1,25.5z M27.5,33.1h-2.8c-3,0-5.5,2.5-5.5,5.5v0.7
	c0,1.1,0.9,2,2,2H31c1.1,0,2-0.9,2-2v-0.7C33,35.6,30.5,33.1,27.5,33.1L27.5,33.1z M31.4,39.3c0,0.2-0.2,0.4-0.4,0.4h-9.9
	c-0.2,0-0.4-0.2-0.4-0.4v-0.7c0-2.2,1.8-3.9,3.9-3.9h2.8c2.2,0,3.9,1.8,3.9,3.9L31.4,39.3z M58.8,11.8h-20c-1.5,0-2.8,1.3-2.8,2.8
	v2.8H16.3c-1.5,0-2.7,1.2-2.7,2.7v26.2l-4.7,6.9c-0.5,0.8-0.6,1.7-0.1,2.5C9.2,56.5,10.1,57,11,57h44.2c0.9,0,1.7-0.5,2.2-1.3
	c0.4-0.8,0.4-1.8-0.1-2.5l-4.7-6.9v-14h6.3c1.5,0,2.8-1.3,2.8-2.8V14.6C61.5,13.1,60.3,11.8,58.8,11.8z M15.1,20.2
	c0-0.6,0.5-1.1,1.1-1.1h19.6v15.4c0,0.5,0.3,1,0.8,1.2c0.2,0.1,0.3,0.1,0.5,0.1c0.3,0,0.7-0.1,0.9-0.4l2.5-2.5
	c0.3-0.3,0.8-0.5,1.2-0.5h9.1V46H15.1V20.2z M55.9,54.2c0.2,0.3,0.2,0.6,0,0.9c-0.2,0.3-0.4,0.5-0.8,0.5H10.9
	c-0.3,0-0.6-0.2-0.8-0.5s-0.1-0.6,0-0.9l4.6-6.8h36.5L55.9,54.2z M60,29.5c0,0.7-0.5,1.2-1.2,1.2h-17c-0.9,0-1.7,0.4-2.3,1l-2,2
	V18.2l0,0l0,0v-3.6c0-0.7,0.5-1.2,1.2-1.2h20c0.7,0,1.2,0.5,1.2,1.2L60,29.5L60,29.5z M36.3,52.9h-7.2c-0.4,0-0.8,0.4-0.8,0.8
	c0,0.4,0.4,0.8,0.8,0.8h7.2c0.4,0,0.8-0.4,0.8-0.8C37.1,53.3,36.7,52.9,36.3,52.9z M53.4,18.8H43.1c-0.4,0-0.8,0.4-0.8,0.8
	s0.4,0.8,0.8,0.8h10.3c0.4,0,0.8-0.4,0.8-0.8C54.2,19.2,53.8,18.8,53.4,18.8L53.4,18.8z M53.4,24.2H43.1c-0.4,0-0.8,0.4-0.8,0.8
	s0.4,0.8,0.8,0.8h10.3c0.4,0,0.8-0.4,0.8-0.8S53.8,24.2,53.4,24.2L53.4,24.2z"/>
</svg>
