<?xml version="1.0" encoding="utf-8"?>
<!-- Generator: Adobe Illustrator 25.2.1, SVG Export Plug-In . SVG Version: 6.00 Build 0)  -->
<svg version="1.1" id="Layer_1" xmlns="http://www.w3.org/2000/svg" xmlns:xlink="http://www.w3.org/1999/xlink" x="0px" y="0px"
	 viewBox="0 0 144 144" style="enable-background:new 0 0 144 144;" xml:space="preserve">
<style type="text/css">
	.st0{fill:#4D815C;}
</style>
<g id="Layer_12" transform="translate(-8.244 -6.118)">
	<path id="Path_536" class="st0" d="M108,26.8c11.2,0,20.2,9,20.3,20.2c0,4.7-1.6,9.2-4.6,12.9c-2.9-1.3-6-1.9-9.1-1.9
		c-1.5,0-3,0.2-4.4,0.4c-4-8.8-12.3-14.8-21.9-15.9C90.4,33.3,98.5,26.8,108,26.8z"/>
	<path id="Path_537" class="st0" d="M114.5,100.3c-3.6,0-7.2-1-10.3-2.9c-0.4-0.2-0.8-0.3-1.2-0.2c-8.5,2.1-17.3,3.2-26.1,3.1
		c-10.3,0.1-20.5-1.4-30.4-4.3c-0.4-0.1-0.9-0.1-1.3,0.2c-9.8,5.9-22.5,2.7-28.4-7.1c-5.9-9.8-2.7-22.5,7.1-28.4
		c1.7-1.1,3.6-1.8,5.6-2.3c0.6-0.2,1.1-0.7,1.2-1.3c2.3-13.2,14.8-22,27.9-19.7c6.2,1.1,11.7,4.5,15.4,9.6c0.4,0.6,1.2,0.8,1.9,0.5
		c12.3-5.1,26.5,0.7,31.6,13c0.1,0.1,0.1,0.3,0.2,0.4c0.3,0.7,1.1,1.2,1.9,0.9c10.5-2.7,21.1,3.6,23.8,14c2.7,10.5-3.6,21.1-14,23.8
		C117.8,100.1,116.2,100.3,114.5,100.3L114.5,100.3z"/>
	<path id="Path_538" class="st0" d="M108,8.3l3.5,7.1h-7.1L108,8.3z"/>
	<path id="Path_539" class="st0" d="M135.3,19.7l-2.5,7.5l-5-5L135.3,19.7z"/>
	<path id="Path_540" class="st0" d="M88.1,22.2l-5,5l-2.5-7.5L88.1,22.2z"/>
	<path id="Path_541" class="st0" d="M139.6,50.6v-7.1l7.1,3.5L139.6,50.6z"/>
	<path id="Path_542" class="st0" d="M40,116.4c0,0,3.3,14.7-5.2,12.9l-0.1,0C27.4,124.7,39.9,116.3,40,116.4L40,116.4z"/>
	<path id="Path_543" class="st0" d="M58.6,111c0,0,3.3,14.7-5.2,12.9l-0.1,0C46,119.3,58.6,111,58.6,111L58.6,111z"/>
	<path id="Path_544" class="st0" d="M50.7,129.5c0,0,3.3,14.7-5.2,12.9l-0.1,0C38.1,137.8,50.6,129.5,50.7,129.5L50.7,129.5z"/>
	<path id="Path_545" class="st0" d="M32.7,134.8c0,0,3.3,14.7-5.2,12.9l-0.1,0C20,143.1,32.6,134.8,32.7,134.8L32.7,134.8z"/>
	<path id="Path_546" class="st0" d="M73.7,116.4c0,0,3.3,14.7-5.2,12.9l-0.1,0C61.1,124.7,73.6,116.3,73.7,116.4L73.7,116.4z"/>
	<path id="Path_547" class="st0" d="M66.3,134.8c0,0,3.3,14.7-5.2,12.9l-0.1,0C53.7,143.1,66.2,134.8,66.3,134.8L66.3,134.8z"/>
	<path id="Path_548" class="st0" d="M93.6,111c0,0,3.3,14.7-5.2,12.9l-0.1,0C81,119.3,93.5,111,93.6,111L93.6,111z"/>
	<path id="Path_549" class="st0" d="M85.7,129.5c0,0,3.3,14.7-5.2,12.9l-0.1,0C73.1,137.8,85.6,129.5,85.7,129.5L85.7,129.5z"/>
	<path id="Path_550" class="st0" d="M108.7,116.4c0,0,3.3,14.7-5.2,12.9l-0.1,0C96,124.7,108.6,116.3,108.7,116.4L108.7,116.4z"/>
	<path id="Path_551" class="st0" d="M101.3,134.8c0,0,3.3,14.7-5.2,12.9l-0.1,0C88.7,143.1,101.2,134.8,101.3,134.8L101.3,134.8z"/>
</g>
</svg>
