<?xml version="1.0" encoding="utf-8"?>
<!-- Generator: Adobe Illustrator 25.2.1, SVG Export Plug-In . SVG Version: 6.00 Build 0)  -->
<svg version="1.1" id="Capa_1" xmlns="http://www.w3.org/2000/svg" xmlns:xlink="http://www.w3.org/1999/xlink" x="0px" y="0px"
	 viewBox="0 0 496 496" style="enable-background:new 0 0 496 496;" xml:space="preserve">
<style type="text/css">
	.st0{fill:#BCBCBC;}
</style>
<g id="Data_file">
	<path class="st0" d="M45.1,53.2h8.1c4.5,0,8.1-3.6,8.1-8.1S57.7,37,53.2,37h-8.1c-4.5,0-8.1,3.6-8.1,8.1S40.6,53.2,45.1,53.2z"/>
	<path class="st0" d="M85.7,53.2h8.1c4.5,0,8.1-3.6,8.1-8.1S98.3,37,93.8,37h-8.1c-4.5,0-8.1,3.6-8.1,8.1S81.2,53.2,85.7,53.2z"/>
	<path class="st0" d="M126.2,53.2h8.1c4.5,0,8.1-3.6,8.1-8.1s-3.6-8.1-8.1-8.1h-8.1c-4.5,0-8.1,3.6-8.1,8.1S121.8,53.2,126.2,53.2z"
		/>
	<path class="st0" d="M467.2,134.4h-40.6V28.8c0-13.4-10.9-24.4-24.4-24.4H28.8C15.4,4.5,4.5,15.4,4.5,28.8v308.4
		c0,13.4,10.9,24.4,24.4,24.4h40.6v105.5c0,13.4,10.9,24.4,24.4,24.4h373.4c13.4,0,24.4-10.9,24.4-24.4V158.7
		C491.5,145.3,480.6,134.4,467.2,134.4z M475.3,158.7v40.6H85.7v-40.6c0-4.5,3.6-8.1,8.1-8.1h373.4
		C471.6,150.6,475.3,154.2,475.3,158.7z M28.8,20.7h373.4c4.5,0,8.1,3.6,8.1,8.1v40.6H20.7V28.8C20.7,24.4,24.4,20.7,28.8,20.7z
		 M28.8,345.4c-4.5,0-8.1-3.6-8.1-8.1V85.7h389.6v48.7H93.8c-13.4,0-24.4,10.9-24.4,24.4v186.7H28.8z M467.2,475.3H93.8
		c-4.5,0-8.1-3.6-8.1-8.1V215.5h389.6v251.6C475.3,471.6,471.6,475.3,467.2,475.3z"/>
	<path class="st0" d="M118.1,166.8H110c-4.5,0-8.1,3.6-8.1,8.1c0,4.5,3.6,8.1,8.1,8.1h8.1c4.5,0,8.1-3.6,8.1-8.1
		C126.2,170.5,122.6,166.8,118.1,166.8z"/>
	<path class="st0" d="M158.7,166.8h-8.1c-4.5,0-8.1,3.6-8.1,8.1c0,4.5,3.6,8.1,8.1,8.1h8.1c4.5,0,8.1-3.6,8.1-8.1
		C166.8,170.5,163.2,166.8,158.7,166.8z"/>
	<path class="st0" d="M199.3,166.8h-8.1c-4.5,0-8.1,3.6-8.1,8.1c0,4.5,3.6,8.1,8.1,8.1h8.1c4.5,0,8.1-3.6,8.1-8.1
		C207.4,170.5,203.8,166.8,199.3,166.8z"/>
	<path class="st0" d="M150.6,272.4h32.5c4.5,0,8.1-3.6,8.1-8.1s-3.6-8.1-8.1-8.1h-32.5c-4.5,0-8.1,3.6-8.1,8.1
		S146.1,272.4,150.6,272.4z"/>
	<path class="st0" d="M150.6,321.1h32.5c4.5,0,8.1-3.6,8.1-8.1c0-4.5-3.6-8.1-8.1-8.1h-32.5c-4.5,0-8.1,3.6-8.1,8.1
		C142.5,317.4,146.1,321.1,150.6,321.1z"/>
	<path class="st0" d="M150.6,369.8h32.5c4.5,0,8.1-3.6,8.1-8.1s-3.6-8.1-8.1-8.1h-32.5c-4.5,0-8.1,3.6-8.1,8.1
		S146.1,369.8,150.6,369.8z"/>
	<path class="st0" d="M231.8,369.8h97.4c4.5,0,8.1-3.6,8.1-8.1s-3.6-8.1-8.1-8.1h-97.4c-4.5,0-8.1,3.6-8.1,8.1
		S227.3,369.8,231.8,369.8z"/>
	<path class="st0" d="M231.8,321.1h32.5c4.5,0,8.1-3.6,8.1-8.1c0-4.5-3.6-8.1-8.1-8.1h-32.5c-4.5,0-8.1,3.6-8.1,8.1
		C223.6,317.4,227.3,321.1,231.8,321.1z"/>
	<path class="st0" d="M329.2,321.1c4.5,0,8.1-3.6,8.1-8.1c0-4.5-3.6-8.1-8.1-8.1h-32.5c-4.5,0-8.1,3.6-8.1,8.1
		c0,4.5,3.6,8.1,8.1,8.1H329.2z"/>
	<path class="st0" d="M410.3,304.8h-32.5c-4.5,0-8.1,3.6-8.1,8.1c0,4.5,3.6,8.1,8.1,8.1h32.5c4.5,0,8.1-3.6,8.1-8.1
		C418.5,308.5,414.8,304.8,410.3,304.8z"/>
	<path class="st0" d="M410.3,353.5h-32.5c-4.5,0-8.1,3.6-8.1,8.1s3.6,8.1,8.1,8.1h32.5c4.5,0,8.1-3.6,8.1-8.1
		S414.8,353.5,410.3,353.5z"/>
	<path class="st0" d="M410.3,256.1H231.8c-4.5,0-8.1,3.6-8.1,8.1s3.6,8.1,8.1,8.1h178.6c4.5,0,8.1-3.6,8.1-8.1
		S414.8,256.1,410.3,256.1z"/>
	<path class="st0" d="M410.3,402.2H150.6c-4.5,0-8.1,3.6-8.1,8.1s3.6,8.1,8.1,8.1h259.7c4.5,0,8.1-3.6,8.1-8.1
		S414.8,402.2,410.3,402.2z"/>
</g>
</svg>
