<svg viewBox="0 0 64 64" xmlns="http://www.w3.org/2000/svg"><g id="Layer_31" data-name="Layer 31"><path d="m57.25 34.5v-2a.25.25 0 0 1 .5 0v2a.25.25 0 0 1 -.5 0zm.25-9.75a.25048.25048 0 0 0 .25-.25v-2a.25.25 0 0 0 -.5 0v2a.25048.25048 0 0 0 .25.25zm0 5a.25048.25048 0 0 0 .25-.25v-2a.25.25 0 0 0 -.5 0v2a.25048.25048 0 0 0 .25.25zm0 20a.25048.25048 0 0 0 .25-.25v-2a.25.25 0 0 0 -.5 0v2a.25048.25048 0 0 0 .25.25zm0-5a.25048.25048 0 0 0 .25-.25v-2a.25.25 0 0 0 -.5 0v2a.25048.25048 0 0 0 .25.25zm0-5a.25048.25048 0 0 0 .25-.25v-2a.25.25 0 0 0 -.5 0v2a.25048.25048 0 0 0 .25.25zm5-25.22949v34.959a4.85981 4.85981 0 0 1 -4.85449 4.85349h-51.29102a4.85981 4.85981 0 0 1 -4.85449-4.85351v-34.959a4.85981 4.85981 0 0 1 4.85449-4.85349h51.291a4.85981 4.85981 0 0 1 4.85451 4.85351zm-6.37012.14941a.99424.99424 0 0 0 .99024 1 1 1 0 1 0 0-2 .98749.98749 0 0 0 -.99024 1zm-4.00976 0a1 1 0 1 0 2 0 1 1 0 1 0 -2 0zm-3.99024 0a.99513.99513 0 1 0 .99024-1 .99424.99424 0 0 0 -.99024 1zm12.37012 4.99708h-57v29.8125a2.8572 2.8572 0 0 0 2.85449 2.8535h51.291a2.8572 2.8572 0 0 0 2.85451-2.85351zm-41.875 17.3789v-2.0918a1.33118 1.33118 0 0 1 1.3291-1.3291h2.6709a9.57418 9.57418 0 0 1 1.06836-2.57324l-1.89063-1.88965a1.32972 1.32972 0 0 1 0-1.88086l1.47852-1.47852a1.3249 1.3249 0 0 1 .94043-.38964h.001a1.32421 1.32421 0 0 1 .93945.39062l1.88187 1.88184a9.60751 9.60751 0 0 1 2.58105-1.083v-2.64845a1.33118 1.33118 0 0 1 1.3291-1.3291h2.0918a1.33118 1.33118 0 0 1 1.3291 1.3291v2.63281a9.56341 9.56341 0 0 1 2.60054 1.07909l1.8623-1.86329a1.32738 1.32738 0 0 1 .93945-.38964h.001a1.3249 1.3249 0 0 1 .94043.38964l1.47852 1.47852a1.32854 1.32854 0 0 1 -.001 1.88086l-1.85742 1.85742a9.65416 9.65416 0 0 1 1.08691 2.60549h2.62012a1.33118 1.33118 0 0 1 1.3291 1.3291v2.0918a1.33118 1.33118 0 0 1 -1.3291 1.3291h-2.62012a9.65416 9.65416 0 0 1 -1.08691 2.60547l1.8584 1.85742a1.32972 1.32972 0 0 1 0 1.88086l-1.47852 1.47852a1.329 1.329 0 0 1 -.94043.38964h-.001a1.32423 1.32423 0 0 1 -.93945-.39062l-1.86228-1.86229a9.56341 9.56341 0 0 1 -2.60059 1.07909v2.63281a1.33118 1.33118 0 0 1 -1.3291 1.3291h-2.0918a1.33118 1.33118 0 0 1 -1.3291-1.3291v-2.64844a9.60751 9.60751 0 0 1 -2.58105-1.083l-1.88184 1.88282a1.32737 1.32737 0 0 1 -.93945.38964h-.001a1.3249 1.3249 0 0 1 -.94043-.38964l-1.47852-1.47852a1.32854 1.32854 0 0 1 .001-1.88086l1.88965-1.88965a9.574 9.574 0 0 1 -1.06836-2.57325h-2.6709a1.33118 1.33118 0 0 1 -1.3291-1.3291zm13.40527 3.90918a4.91639 4.91639 0 0 0 3.37207-1.34961l.22754-.22852a4.93791 4.93791 0 0 0 1.3252-3.19238v-.38281a4.94168 4.94168 0 0 0 -1.333-3.1875l-.22266-.22168a4.9057 4.9057 0 0 0 -3.36914-1.34766 4.95508 4.95508 0 0 0 0 9.91016z"/></g></svg>